
<svg xmlns="http://www.w3.org/2000/svg" version="1.1" xmlns:xlink="http://www.w3.org/1999/xlink" preserveAspectRatio="none" x="0px" y="0px" width="278px" height="1045px" viewBox="0 0 278 1045">
<defs>
<g id="Layer44_0_FILL">
<path fill="#222222" stroke="none" d="
M 139 966
Q 122 966 108.3 957.9
L 70.2 1023.9
Q 100.85 1042 139 1042 177.1 1042 207.65 1023.95
L 169.6 957.95
Q 155.95 966 139 966
M 2 854
L 78 854 78 803 2 803 2 854
M 276 854
L 200 854 200 905 276 905 276 854
M 275.95 650
L 200 650 200 701 275.95 701 275.95 650
M 207.05 752.1
L 200 752.15 200 801.45 200 803 276 803 275.95 752 207.05 752.1
M 78 752
L 78 701 2 701 2 752 78 752
M 2 650
L 78 650 78 599 2 599 2 650
M 78 548
L 78 497 2 497 2 548 78 548
M 200 497
L 275.95 497 275.95 446 200 446 200 497
M 275.95 548
L 200 548 200 599 275.95 599 275.95 548
M 200 344
L 200 395 275.95 395 275.95 344 200 344
M 275.95 293
L 275.95 242 200 242 200 293 275.95 293
M 78 395
L 2 395 2 446 78 446 78 395
M 78 293
L 2 293 2 344 78 344 78 293
M 78 191
L 2 191 2 242 78 242 78 191
M 7 102
Q 3.75 113.75 2.6 126.4 2 133.05 2 140
L 78 140
Q 78 118.25 91.2 102 93.35 99.4 95.85 96.9
L 42.1 43.1
Q 16.15 69.05 7 102
M 200 140
L 200 191 275.95 191 275.95 143.55
Q 276 141.75 276 140
L 200 140
M 235.85 43.15
L 235.85 43.1
Q 195.75 3 139 3
L 139 79
Q 164.25 79 182.1 96.9
L 235.85 43.15 Z"/>

<path fill="#006600" stroke="none" d="
M 2 905
Q 2 911.95 2.6 918.65 6.9 966.7 42.1 1001.9 47.5 1007.3 53.2 1012 61.4 1018.7 70.2 1023.9
L 108.3 957.9
Q 101.7 953.95 95.85 948.1 78 930.25 78 905
L 2 905 Z"/>

<path fill="#660000" stroke="none" d="
M 78 854
L 2 854 2 905 78 905 78 854
M 182.1 948.1
Q 176.25 953.95 169.6 957.95
L 207.65 1023.95
Q 216.5 1018.75 224.7 1012 230.45 1007.3 235.85 1001.9 274.45 963.3 275.95 909.3 276 907.15 276 905
L 200 905
Q 200 930.25 182.1 948.1
M 276 854
L 276 803 200 803 200 854 276 854
M 200 752
L 207.05 752.1 275.95 752 275.95 701 200 701 200 752
M 275.95 650
L 275.95 599 200 599 200 650 275.95 650
M 78 752
L 2 752 2 803 78 803 78 801.45 78 752
M 78 650
L 2 650 2 701 78 701 78 650
M 78 548
L 2 548 2 599 78 599 78 548
M 78 446
L 2 446 2 497 78 497 78 446
M 200 497
L 200 548 275.95 548 275.95 497 200 497
M 275.95 344
L 275.95 293 200 293 200 344 275.95 344
M 275.95 395
L 200 395 200 446 275.95 446 275.95 395
M 78 395
L 78 344 2 344 2 395 78 395
M 2 293
L 78 293 78 242 2 242 2 293
M 2 140
Q 2 141.75 2 143.55
L 2 191 78 191 78 140 2 140
M 95.85 96.9
Q 113.75 79 139 79
L 139 3
Q 82.2 3 42.1 43.1
L 95.85 96.9
M 275.95 191
L 200 191 200 242 275.95 242 275.95 191
M 235.85 43.15
L 182.1 96.9
Q 184.6 99.4 186.7 102 200 118.25 200 140
L 276 140
Q 276 137.85 275.95 135.7 275.5 118 271 102 261.85 69.1 235.85 43.15 Z"/>
</g>

<g id="Layer42_0_FILL">
<path fill="#FFFFFF" stroke="none" d="
M 146.2 999.25
L 149.95 999.25 149.95 997.5
Q 149.95 992.95 144.5 992.95 141.75 992.95 140.25 994.15 138.7 995.4 138.7 997.85
L 138.7 1011.2
Q 138.7 1013.85 140.4 1015 142.1 1016.15 144.45 1016.15 146.05 1016.15 147.2 1015.7 148.35 1015.25 148.9 1014.65 149.5 1014.1 149.8 1013.25 150.1 1012.4 150.15 1011.95 150.15 1011.5 150.15 1010.9
L 150.15 1005.65
Q 150.15 1003.85 149.25 1002.55 148.35 1001.25 146.2 1001.25 144.25 1001.25 142.6 1002.65
L 142.6 998.05
Q 142.6 995.95 144.5 995.95 145.55 995.95 145.9 996.5 146.2 996.95 146.2 997.9
L 146.2 999.25
M 142.6 1006.75
Q 142.6 1004.5 144.5 1004.5 145.1 1004.5 145.5 1004.7 145.9 1004.95 146.05 1005.35 146.2 1005.8 146.2 1006.1 146.25 1006.4 146.25 1006.95
L 146.25 1011
Q 146.25 1013.05 144.5 1013.05 143.6 1013.05 143.15 1012.55 142.7 1012.05 142.65 1011.6 142.6 1011.15 142.6 1010.45
L 142.6 1006.75
M 136.55 1000.85
L 136.55 997.85
Q 136.55 995.25 134.95 994.1 133.4 992.95 130.8 992.95 128.2 992.95 126.8 994.15 125.4 995.4 125.4 997.95
L 125.4 1000.85 129.1 1000.85 129.1 998.15
Q 129.1 995.95 131 995.95 132.65 995.95 132.65 997.95
L 132.65 1000.5
Q 132.65 1001.75 132.15 1002.5 131.65 1003.2 129.05 1005.8 126.7 1008.15 125.8 1010.15 124.9 1012.2 124.9 1015.7
L 124.9 1015.85 136.8 1015.85 136.8 1012.45 129.3 1012.45
Q 129.3 1011.65 129.75 1010.85 130.2 1010 130.6 1009.55 130.95 1009.15 131.8 1008.3
L 133.8 1006.3
Q 135.4 1004.65 136 1003.6 136.55 1002.5 136.55 1000.85
M 107.7 35.7
Q 105.25 35.7 103.65 36.75 102.05 37.8 102.05 39.95
L 102.05 42.75 105.8 42.75 105.8 40.4
Q 105.8 38.8 107.5 38.8 108.1 38.8 108.5 38.95 108.9 39.15 109.05 39.5 109.2 39.85 109.2 40.05 109.25 40.3 109.25 40.7
L 109.25 42.4
Q 109.25 43.95 108.6 44.55 108 45.2 106.25 45.2
L 105.65 45.2 105.65 47.85 106.45 47.85
Q 108.2 47.85 108.8 48.45 109.4 49.1 109.4 50.65
L 109.4 54.05
Q 109.4 55.9 107.7 55.9 106.55 55.9 106.15 55.35 105.75 54.85 105.75 53.9
L 105.75 51.5 101.85 51.5 101.85 54.25
Q 101.85 56.45 103.5 57.65 105.15 58.9 107.6 58.9 110.6 58.9 111.95 57.45 113.35 56 113.35 53.75
L 113.35 50.25
Q 113.35 49.05 113.15 48.35 113 47.65 112.45 47.25 111.9 46.85 111.5 46.75 111.1 46.6 109.95 46.4 111.7 46.1 112.45 45.35 113.2 44.65 113.2 42.9
L 113.2 40.35
Q 113.2 38.35 111.85 37 110.5 35.7 107.7 35.7
M 98.15 36.85
Q 96.6 35.7 94 35.7 91.4 35.7 90 36.9 88.6 38.15 88.6 40.7
L 88.6 43.6 92.3 43.6 92.3 40.9
Q 92.3 38.7 94.2 38.7 95.85 38.7 95.85 40.7
L 95.85 43.25
Q 95.85 44.5 95.35 45.25 94.85 45.95 92.25 48.55 89.9 50.9 89 52.9 88.1 54.95 88.1 58.45
L 88.1 58.6 100 58.6 100 55.2 92.5 55.2
Q 92.5 54.4 92.95 53.6 93.4 52.75 93.8 52.3 94.15 51.9 95 51.05
L 97 49.05
Q 98.6 47.4 99.2 46.35 99.75 45.25 99.75 43.6
L 99.75 40.6
Q 99.75 38 98.15 36.85
M 180.1 36.95
Q 178.5 38.25 178.5 40.95
L 178.5 53.45
Q 178.5 54.5 178.7 55.3 178.85 56.15 179.45 57 180 57.9 181.2 58.4 182.45 58.9 184.35 58.9 187.15 58.9 188.55 57.4 189.95 55.9 189.95 53.45
L 189.95 41.25
Q 189.95 35.7 184.15 35.7 181.7 35.7 180.1 36.95
M 185.7 39.25
Q 186.05 39.85 186.05 41.2
L 186.05 53.45
Q 186.05 54.65 185.6 55.25 185.2 55.85 184.15 55.85 182.4 55.85 182.4 53.75
L 182.4 41
Q 182.4 40.3 182.45 39.9 182.55 39.5 183 39.05 183.4 38.65 184.25 38.65 185.35 38.65 185.7 39.25
M 165.7 42.75
Q 167.95 42.4 169.1 41.35
L 169.1 58.6 173.05 58.6 173.05 36 170.4 36
Q 169.85 36.75 169.3 37.4 168.7 38 168.25 38.35 167.8 38.7 167.35 39 166.85 39.25 166.55 39.35 166.3 39.45 166 39.55
L 165.7 39.6 165.7 42.75
M 52.35 877.1
L 52.35 874.1
Q 52.35 871.5 50.75 870.35 49.2 869.2 46.6 869.2 44 869.2 42.6 870.4 41.2 871.65 41.2 874.2
L 41.2 877.1 44.9 877.1 44.9 874.4
Q 44.9 872.2 46.8 872.2 48.45 872.2 48.45 874.2
L 48.45 876.75
Q 48.45 878 47.95 878.75 47.45 879.45 44.85 882.05 42.5 884.4 41.6 886.4 40.7 888.45 40.7 891.95
L 40.7 892.1 52.6 892.1 52.6 888.7 45.1 888.7
Q 45.1 887.9 45.55 887.1 46 886.25 46.4 885.8 46.75 885.4 47.6 884.55
L 49.6 882.55
Q 51.2 880.9 51.8 879.85 52.35 878.75 52.35 877.1
M 31.5 876.25
L 31.5 873.9
Q 31.5 872.3 33.2 872.3 33.8 872.3 34.2 872.45 34.6 872.65 34.75 873 34.9 873.35 34.9 873.55 34.95 873.8 34.95 874.2
L 34.95 875.9
Q 34.95 877.45 34.3 878.05 33.7 878.7 31.95 878.7
L 31.35 878.7 31.35 881.35 32.15 881.35
Q 33.9 881.35 34.5 881.95 35.1 882.6 35.1 884.15
L 35.1 887.55
Q 35.1 889.4 33.4 889.4 32.25 889.4 31.85 888.85 31.45 888.35 31.45 887.4
L 31.45 885 27.55 885 27.55 887.75
Q 27.55 889.95 29.2 891.15 30.85 892.4 33.3 892.4 36.3 892.4 37.65 890.95 39.05 889.5 39.05 887.25
L 39.05 883.75
Q 39.05 882.55 38.85 881.85 38.7 881.15 38.15 880.75 37.6 880.35 37.2 880.25 36.8 880.1 35.65 879.9 37.4 879.6 38.15 878.85 38.9 878.15 38.9 876.4
L 38.9 873.85
Q 38.9 871.85 37.55 870.5 36.2 869.2 33.4 869.2 30.95 869.2 29.35 870.25 27.75 871.3 27.75 873.45
L 27.75 876.25 31.5 876.25
M 31.8 819.9
Q 31.2 820.5 30.75 820.85 30.3 821.2 29.85 821.5 29.35 821.75 29.05 821.85 28.8 821.95 28.5 822.05
L 28.2 822.1 28.2 825.25
Q 30.45 824.9 31.6 823.85
L 31.6 841.1 35.55 841.1 35.55 818.5 32.9 818.5
Q 32.35 819.25 31.8 819.9
M 52.15 821.9
L 52.15 818.5 41.65 818.5
Q 41.6 819.55 41.4 830.6
L 44.5 830.6
Q 44.65 829.7 45.05 829.15 45.5 828.6 45.9 828.45 46.3 828.3 46.65 828.3 48.45 828.3 48.45 830.45
L 48.45 836.45
Q 48.45 838.3 46.6 838.3 44.85 838.3 44.85 836.6
L 44.85 834.05 41 834.05 41 836.4
Q 41 841.4 46.9 841.4 52.5 841.4 52.5 835.9
L 52.5 829.8
Q 52.5 827.85 51.35 826.6 50.2 825.35 48.1 825.35 46.2 825.35 44.75 826.55
L 44.8 821.9 52.15 821.9
M 42.3 768.45
Q 40.9 769.75 40.9 772.45
L 40.9 778.05
Q 40.9 779.75 41.85 780.9 42.8 782 45.05 782 46.85 782 48.5 780.7
L 48.5 785.45
Q 48.5 786.55 48 787 47.55 787.4 46.6 787.4 45.55 787.4 45.15 786.9 44.8 786.4 44.8 785.45
L 44.8 784 40.9 784 40.9 785.8
Q 40.9 788.2 42.45 789.3 44 790.4 46.4 790.4 52.35 790.4 52.35 785.25
L 52.35 772.15
Q 52.35 767.2 46.75 767.2 43.75 767.2 42.3 768.45
M 46.7 770.2
Q 48.5 770.2 48.5 772.3
L 48.5 776.45
Q 48.5 776.95 48.45 777.3 48.45 777.6 48.25 778.05 48.1 778.5 47.65 778.7 47.25 778.9 46.55 778.9 45.75 778.9 45.35 778.45 44.9 778 44.85 777.6 44.8 777.2 44.8 776.45
L 44.8 772.5
Q 44.8 772 44.85 771.7 44.85 771.45 45 771 45.15 770.65 45.6 770.4 46.05 770.2 46.7 770.2
M 31.8 768.9
Q 31.2 769.5 30.75 769.85 30.3 770.2 29.85 770.5 29.35 770.75 29.05 770.85 28.8 770.95 28.5 771.05
L 28.2 771.1 28.2 774.25
Q 30.45 773.9 31.6 772.85
L 31.6 790.1 35.55 790.1 35.55 767.5 32.9 767.5
Q 32.35 768.25 31.8 768.9
M 49 665.5
L 46.35 665.5
Q 45.8 666.25 45.25 666.9 44.65 667.5 44.2 667.85 43.75 668.2 43.3 668.5 42.8 668.75 42.5 668.85 42.25 668.95 41.95 669.05
L 41.65 669.1 41.65 672.25
Q 43.9 671.9 45.05 670.85
L 45.05 688.1 49 688.1 49 665.5
M 37.3 666.35
Q 35.75 665.2 33.15 665.2 30.55 665.2 29.15 666.4 27.75 667.65 27.75 670.2
L 27.75 673.1 31.45 673.1 31.45 670.4
Q 31.45 668.2 33.35 668.2 35 668.2 35 670.2
L 35 672.75
Q 35 674 34.5 674.75 34 675.45 31.4 678.05 29.05 680.4 28.15 682.4 27.25 684.45 27.25 687.95
L 27.25 688.1 39.15 688.1 39.15 684.7 31.65 684.7
Q 31.65 683.9 32.1 683.1 32.55 682.25 32.95 681.8 33.3 681.4 34.15 680.55
L 36.15 678.55
Q 37.75 676.9 38.35 675.85 38.9 674.75 38.9 673.1
L 38.9 670.1
Q 38.9 667.5 37.3 666.35
M 44.8 566.9
L 52.15 566.9 52.15 563.5 41.65 563.5
Q 41.6 564.55 41.4 575.6
L 44.5 575.6
Q 44.65 574.7 45.05 574.15 45.5 573.6 45.9 573.45 46.3 573.3 46.65 573.3 48.45 573.3 48.45 575.45
L 48.45 581.45
Q 48.45 583.3 46.6 583.3 44.85 583.3 44.85 581.6
L 44.85 579.05 41 579.05 41 581.4
Q 41 586.4 46.9 586.4 52.5 586.4 52.5 580.9
L 52.5 574.8
Q 52.5 572.85 51.35 571.6 50.2 570.35 48.1 570.35 46.2 570.35 44.75 571.55
L 44.8 566.9
M 38.9 568.1
Q 38.9 565.5 37.3 564.35 35.75 563.2 33.15 563.2 30.55 563.2 29.15 564.4 27.75 565.65 27.75 568.2
L 27.75 571.1 31.45 571.1 31.45 568.4
Q 31.45 566.2 33.35 566.2 35 566.2 35 568.2
L 35 570.75
Q 35 572 34.5 572.75 34 573.45 31.4 576.05 29.05 578.4 28.15 580.4 27.25 582.45 27.25 585.95
L 27.25 586.1 39.15 586.1 39.15 582.7 31.65 582.7
Q 31.65 581.9 32.1 581.1 32.55 580.25 32.95 579.8 33.3 579.4 34.15 578.55
L 36.15 576.55
Q 37.75 574.9 38.35 573.85 38.9 572.75 38.9 571.1
L 38.9 568.1
M 28.2 516.1
L 28.2 519.25
Q 30.45 518.9 31.6 517.85
L 31.6 535.1 35.55 535.1 35.55 512.5 32.9 512.5
Q 32.35 513.25 31.8 513.9 31.2 514.5 30.75 514.85 30.3 515.2 29.85 515.5 29.35 515.75 29.05 515.85 28.8 515.95 28.5 516.05
L 28.2 516.1
M 40.65 512.5
L 40.65 518.5 43.95 518.5 43.95 515.85 49.25 515.85
Q 46.95 519.65 45.1 525.2 43.25 530.75 43.1 535.1
L 47.35 535.1
Q 47.35 529.75 49 524.75 50.6 519.75 52.85 515.85
L 52.85 512.5 40.65 512.5
M 51.25 461.4
L 46.5 461.4 40.7 476.65 40.7 479.8 47.6 479.8 47.6 484.1 51.25 484.1 51.25 479.8 52.6 479.8 52.6 476.65 51.25 476.65 51.25 461.4
M 47.6 476.65
L 44.05 476.65 47.85 465.4 47.6 476.65
M 29.35 462.25
Q 27.75 463.3 27.75 465.45
L 27.75 468.25 31.5 468.25 31.5 465.9
Q 31.5 464.3 33.2 464.3 33.8 464.3 34.2 464.45 34.6 464.65 34.75 465 34.9 465.35 34.9 465.55 34.95 465.8 34.95 466.2
L 34.95 467.9
Q 34.95 469.45 34.3 470.05 33.7 470.7 31.95 470.7
L 31.35 470.7 31.35 473.35 32.15 473.35
Q 33.9 473.35 34.5 473.95 35.1 474.6 35.1 476.15
L 35.1 479.55
Q 35.1 481.4 33.4 481.4 32.25 481.4 31.85 480.85 31.45 480.35 31.45 479.4
L 31.45 477 27.55 477 27.55 479.75
Q 27.55 481.95 29.2 483.15 30.85 484.4 33.3 484.4 36.3 484.4 37.65 482.95 39.05 481.5 39.05 479.25
L 39.05 475.75
Q 39.05 474.55 38.85 473.85 38.7 473.15 38.15 472.75 37.6 472.35 37.2 472.25 36.8 472.1 35.65 471.9 37.4 471.6 38.15 470.85 38.9 470.15 38.9 468.4
L 38.9 465.85
Q 38.9 463.85 37.55 462.5 36.2 461.2 33.4 461.2 30.95 461.2 29.35 462.25
M 40.65 359.5
L 40.65 365.5 43.95 365.5 43.95 362.85 49.25 362.85
Q 46.95 366.65 45.1 372.2 43.25 377.75 43.1 382.1
L 47.35 382.1
Q 47.35 376.75 49 371.75 50.6 366.75 52.85 362.85
L 52.85 359.5 40.65 359.5
M 27.75 364.2
L 27.75 367.1 31.45 367.1 31.45 364.4
Q 31.45 362.2 33.35 362.2 35 362.2 35 364.2
L 35 366.75
Q 35 368 34.5 368.75 34 369.45 31.4 372.05 29.05 374.4 28.15 376.4 27.25 378.45 27.25 381.95
L 27.25 382.1 39.15 382.1 39.15 378.7 31.65 378.7
Q 31.65 377.9 32.1 377.1 32.55 376.25 32.95 375.8 33.3 375.4 34.15 374.55
L 36.15 372.55
Q 37.75 370.9 38.35 369.85 38.9 368.75 38.9 367.1
L 38.9 364.1
Q 38.9 361.5 37.3 360.35 35.75 359.2 33.15 359.2 30.55 359.2 29.15 360.4 27.75 361.65 27.75 364.2
M 46.85 308.2
Q 44.4 308.2 42.8 309.25 41.2 310.3 41.2 312.45
L 41.2 315.25 44.95 315.25 44.95 312.9
Q 44.95 311.3 46.65 311.3 47.25 311.3 47.65 311.45 48.05 311.65 48.2 312 48.35 312.35 48.35 312.55 48.4 312.8 48.4 313.2
L 48.4 314.9
Q 48.4 316.45 47.75 317.05 47.15 317.7 45.4 317.7
L 44.8 317.7 44.8 320.35 45.6 320.35
Q 47.35 320.35 47.95 320.95 48.55 321.6 48.55 323.15
L 48.55 326.55
Q 48.55 328.4 46.85 328.4 45.7 328.4 45.3 327.85 44.9 327.35 44.9 326.4
L 44.9 324 41 324 41 326.75
Q 41 328.95 42.65 330.15 44.3 331.4 46.75 331.4 49.75 331.4 51.1 329.95 52.5 328.5 52.5 326.25
L 52.5 322.75
Q 52.5 321.55 52.3 320.85 52.15 320.15 51.6 319.75 51.05 319.35 50.65 319.25 50.25 319.1 49.1 318.9 50.85 318.6 51.6 317.85 52.35 317.15 52.35 315.4
L 52.35 312.85
Q 52.35 310.85 51 309.5 49.65 308.2 46.85 308.2
M 35.55 308.5
L 32.9 308.5
Q 32.35 309.25 31.8 309.9 31.2 310.5 30.75 310.85 30.3 311.2 29.85 311.5 29.35 311.75 29.05 311.85 28.8 311.95 28.5 312.05
L 28.2 312.1 28.2 315.25
Q 30.45 314.9 31.6 313.85
L 31.6 331.1 35.55 331.1 35.55 308.5
M 46.85 257.2
Q 44.1 257.2 42.6 258.4 41.05 259.65 41.05 262.1
L 41.05 275.45
Q 41.05 278.1 42.75 279.25 44.45 280.4 46.8 280.4 48.4 280.4 49.55 279.95 50.7 279.5 51.25 278.9 51.85 278.35 52.15 277.5 52.45 276.65 52.5 276.2 52.5 275.75 52.5 275.15
L 52.5 269.9
Q 52.5 268.1 51.6 266.8 50.7 265.5 48.55 265.5 46.6 265.5 44.95 266.9
L 44.95 262.3
Q 44.95 260.2 46.85 260.2 47.9 260.2 48.25 260.75 48.55 261.2 48.55 262.15
L 48.55 263.5 52.3 263.5 52.3 261.75
Q 52.3 257.2 46.85 257.2
M 46.85 268.75
Q 47.45 268.75 47.85 268.95 48.25 269.2 48.4 269.6 48.55 270.05 48.55 270.35 48.6 270.65 48.6 271.2
L 48.6 275.25
Q 48.6 277.3 46.85 277.3 45.95 277.3 45.5 276.8 45.05 276.3 45 275.85 44.95 275.4 44.95 274.7
L 44.95 271
Q 44.95 268.75 46.85 268.75
M 37.55 258.5
Q 36.2 257.2 33.4 257.2 30.95 257.2 29.35 258.25 27.75 259.3 27.75 261.45
L 27.75 264.25 31.5 264.25 31.5 261.9
Q 31.5 260.3 33.2 260.3 33.8 260.3 34.2 260.45 34.6 260.65 34.75 261 34.9 261.35 34.9 261.55 34.95 261.8 34.95 262.2
L 34.95 263.9
Q 34.95 265.45 34.3 266.05 33.7 266.7 31.95 266.7
L 31.35 266.7 31.35 269.35 32.15 269.35
Q 33.9 269.35 34.5 269.95 35.1 270.6 35.1 272.15
L 35.1 275.55
Q 35.1 277.4 33.4 277.4 32.25 277.4 31.85 276.85 31.45 276.35 31.45 275.4
L 31.45 273 27.55 273 27.55 275.75
Q 27.55 277.95 29.2 279.15 30.85 280.4 33.3 280.4 36.3 280.4 37.65 278.95 39.05 277.5 39.05 275.25
L 39.05 271.75
Q 39.05 270.55 38.85 269.85 38.7 269.15 38.15 268.75 37.6 268.35 37.2 268.25 36.8 268.1 35.65 267.9 37.4 267.6 38.15 266.85 38.9 266.15 38.9 264.4
L 38.9 261.85
Q 38.9 259.85 37.55 258.5
M 35.55 206.5
L 32.9 206.5
Q 32.35 207.25 31.8 207.9 31.2 208.5 30.75 208.85 30.3 209.2 29.85 209.5 29.35 209.75 29.05 209.85 28.8 209.95 28.5 210.05
L 28.2 210.1 28.2 213.25
Q 30.45 212.9 31.6 211.85
L 31.6 229.1 35.55 229.1 35.55 206.5
M 49 206.5
L 46.35 206.5
Q 45.8 207.25 45.25 207.9 44.65 208.5 44.2 208.85 43.75 209.2 43.3 209.5 42.8 209.75 42.5 209.85 42.25 209.95 41.95 210.05
L 41.65 210.1 41.65 213.25
Q 43.9 212.9 45.05 211.85
L 45.05 229.1 49 229.1 49 206.5
M 42.6 156.45
Q 41 157.75 41 160.45
L 41 172.95
Q 41 174 41.2 174.8 41.35 175.65 41.95 176.5 42.5 177.4 43.7 177.9 44.95 178.4 46.85 178.4 49.65 178.4 51.05 176.9 52.45 175.4 52.45 172.95
L 52.45 160.75
Q 52.45 155.2 46.65 155.2 44.2 155.2 42.6 156.45
M 44.9 160.5
Q 44.9 159.8 44.95 159.4 45.05 159 45.5 158.55 45.9 158.15 46.75 158.15 47.85 158.15 48.2 158.75 48.55 159.35 48.55 160.7
L 48.55 172.95
Q 48.55 174.15 48.1 174.75 47.7 175.35 46.65 175.35 44.9 175.35 44.9 173.25
L 44.9 160.5
M 31.5 159.9
Q 31.5 158.3 33.2 158.3 33.8 158.3 34.2 158.45 34.6 158.65 34.75 159 34.9 159.35 34.9 159.55 34.95 159.8 34.95 160.2
L 34.95 161.9
Q 34.95 163.45 34.3 164.05 33.7 164.7 31.95 164.7
L 31.35 164.7 31.35 167.35 32.15 167.35
Q 33.9 167.35 34.5 167.95 35.1 168.6 35.1 170.15
L 35.1 173.55
Q 35.1 175.4 33.4 175.4 32.25 175.4 31.85 174.85 31.45 174.35 31.45 173.4
L 31.45 171 27.55 171 27.55 173.75
Q 27.55 175.95 29.2 177.15 30.85 178.4 33.3 178.4 36.3 178.4 37.65 176.95 39.05 175.5 39.05 173.25
L 39.05 169.75
Q 39.05 168.55 38.85 167.85 38.7 167.15 38.15 166.75 37.6 166.35 37.2 166.25 36.8 166.1 35.65 165.9 37.4 165.6 38.15 164.85 38.9 164.15 38.9 162.4
L 38.9 159.85
Q 38.9 157.85 37.55 156.5 36.2 155.2 33.4 155.2 30.95 155.2 29.35 156.25 27.75 157.3 27.75 159.45
L 27.75 162.25 31.5 162.25 31.5 159.9
M 249.35 877.6
Q 248.2 876.35 246.1 876.35 244.2 876.35 242.75 877.55
L 242.8 872.9 250.15 872.9 250.15 869.5 239.65 869.5
Q 239.6 870.55 239.4 881.6
L 242.5 881.6
Q 242.65 880.7 243.05 880.15 243.5 879.6 243.9 879.45 244.3 879.3 244.65 879.3 246.45 879.3 246.45 881.45
L 246.45 887.45
Q 246.45 889.3 244.6 889.3 242.85 889.3 242.85 887.6
L 242.85 885.05 239 885.05 239 887.4
Q 239 892.4 244.9 892.4 250.5 892.4 250.5 886.9
L 250.5 880.8
Q 250.5 878.85 249.35 877.6
M 232.9 873.55
Q 232.95 873.8 232.95 874.2
L 232.95 875.9
Q 232.95 877.45 232.3 878.05 231.7 878.7 229.95 878.7
L 229.35 878.7 229.35 881.35 230.15 881.35
Q 231.9 881.35 232.5 881.95 233.1 882.6 233.1 884.15
L 233.1 887.55
Q 233.1 889.4 231.4 889.4 230.25 889.4 229.85 888.85 229.45 888.35 229.45 887.4
L 229.45 885 225.55 885 225.55 887.75
Q 225.55 889.95 227.2 891.15 228.85 892.4 231.3 892.4 234.3 892.4 235.65 890.95 237.05 889.5 237.05 887.25
L 237.05 883.75
Q 237.05 882.55 236.85 881.85 236.7 881.15 236.15 880.75 235.6 880.35 235.2 880.25 234.8 880.1 233.65 879.9 235.4 879.6 236.15 878.85 236.9 878.15 236.9 876.4
L 236.9 873.85
Q 236.9 871.85 235.55 870.5 234.2 869.2 231.4 869.2 228.95 869.2 227.35 870.25 225.75 871.3 225.75 873.45
L 225.75 876.25 229.5 876.25 229.5 873.9
Q 229.5 872.3 231.2 872.3 231.8 872.3 232.2 872.45 232.6 872.65 232.75 873 232.9 873.35 232.9 873.55
M 226.2 825.25
Q 228.45 824.9 229.6 823.85
L 229.6 841.1 233.55 841.1 233.55 818.5 230.9 818.5
Q 230.35 819.25 229.8 819.9 229.2 820.5 228.75 820.85 228.3 821.2 227.85 821.5 227.35 821.75 227.05 821.85 226.8 821.95 226.5 822.05
L 226.2 822.1 226.2 825.25
M 246.45 825.75
Q 246.45 827 245.95 827.75 245.45 828.45 242.85 831.05 240.5 833.4 239.6 835.4 238.7 837.45 238.7 840.95
L 238.7 841.1 250.6 841.1 250.6 837.7 243.1 837.7
Q 243.1 836.9 243.55 836.1 244 835.25 244.4 834.8 244.75 834.4 245.6 833.55
L 247.6 831.55
Q 249.2 829.9 249.8 828.85 250.35 827.75 250.35 826.1
L 250.35 823.1
Q 250.35 820.5 248.75 819.35 247.2 818.2 244.6 818.2 242 818.2 240.6 819.4 239.2 820.65 239.2 823.2
L 239.2 826.1 242.9 826.1 242.9 823.4
Q 242.9 821.2 244.8 821.2 246.45 821.2 246.45 823.2
L 246.45 825.75
M 239.25 772
L 239.25 774.4
Q 239.25 775.95 239.9 776.75 240.5 777.55 241.6 778.05 240.1 778.7 239.5 779.5 238.9 780.35 238.9 782.35
L 238.9 785.25
Q 238.9 787.65 240.35 789 241.8 790.4 244.75 790.4 247.2 790.4 248.8 789.15 250.4 787.85 250.4 785.35
L 250.4 781.85
Q 250.4 780.35 249.85 779.45 249.25 778.6 247.8 778.05 249.2 777.35 249.7 776.55 250.15 775.8 250.15 774.1
L 250.15 772.1
Q 250.15 767.2 244.75 767.2 239.25 767.2 239.25 772
M 242.85 781.75
Q 242.85 781.1 242.9 780.75 242.95 780.35 243.45 779.95 243.9 779.5 244.75 779.5 246.55 779.5 246.55 781.75
L 246.55 785.25
Q 246.55 787.3 244.7 787.3 242.85 787.3 242.85 785.25
L 242.85 781.75
M 243 771.95
Q 243 770.3 244.75 770.3 246.45 770.3 246.45 772.15
L 246.45 774.5
Q 246.45 775.2 246.4 775.55 246.35 775.9 245.95 776.3 245.55 776.65 244.75 776.65 243.85 776.65 243.45 776.2 243 775.8 243 774.75
L 243 771.95
M 236.35 777.85
Q 236.9 776.75 236.9 775.1
L 236.9 772.1
Q 236.9 769.5 235.3 768.35 233.75 767.2 231.15 767.2 228.55 767.2 227.15 768.4 225.75 769.65 225.75 772.2
L 225.75 775.1 229.45 775.1 229.45 772.4
Q 229.45 770.2 231.35 770.2 233 770.2 233 772.2
L 233 774.75
Q 233 776 232.5 776.75 232 777.45 229.4 780.05 227.05 782.4 226.15 784.4 225.25 786.45 225.25 789.95
L 225.25 790.1 237.15 790.1 237.15 786.7 229.65 786.7
Q 229.65 785.9 230.1 785.1 230.55 784.25 230.95 783.8 231.3 783.4 232.15 782.55
L 234.15 780.55
Q 235.75 778.9 236.35 777.85
M 235.3 666.35
Q 233.75 665.2 231.15 665.2 228.55 665.2 227.15 666.4 225.75 667.65 225.75 670.2
L 225.75 673.1 229.45 673.1 229.45 670.4
Q 229.45 668.2 231.35 668.2 233 668.2 233 670.2
L 233 672.75
Q 233 674 232.5 674.75 232 675.45 229.4 678.05 227.05 680.4 226.15 682.4 225.25 684.45 225.25 687.95
L 225.25 688.1 237.15 688.1 237.15 684.7 229.65 684.7
Q 229.65 683.9 230.1 683.1 230.55 682.25 230.95 681.8 231.3 681.4 232.15 680.55
L 234.15 678.55
Q 235.75 676.9 236.35 675.85 236.9 674.75 236.9 673.1
L 236.9 670.1
Q 236.9 667.5 235.3 666.35
M 233.55 614.5
L 230.9 614.5
Q 230.35 615.25 229.8 615.9 229.2 616.5 228.75 616.85 228.3 617.2 227.85 617.5 227.35 617.75 227.05 617.85 226.8 617.95 226.5 618.05
L 226.2 618.1 226.2 621.25
Q 228.45 620.9 229.6 619.85
L 229.6 637.1 233.55 637.1 233.55 614.5
M 243.05 680
Q 244.85 680 246.5 678.7
L 246.5 683.45
Q 246.5 684.55 246 685 245.55 685.4 244.6 685.4 243.55 685.4 243.15 684.9 242.8 684.4 242.8 683.45
L 242.8 682 238.9 682 238.9 683.8
Q 238.9 686.2 240.45 687.3 242 688.4 244.4 688.4 250.35 688.4 250.35 683.25
L 250.35 670.15
Q 250.35 665.2 244.75 665.2 241.75 665.2 240.3 666.45 238.9 667.75 238.9 670.45
L 238.9 676.05
Q 238.9 677.75 239.85 678.9 240.8 680 243.05 680
M 243 669
Q 243.15 668.65 243.6 668.4 244.05 668.2 244.7 668.2 246.5 668.2 246.5 670.3
L 246.5 674.45
Q 246.5 674.95 246.45 675.3 246.45 675.6 246.25 676.05 246.1 676.5 245.65 676.7 245.25 676.9 244.55 676.9 243.75 676.9 243.35 676.45 242.9 676 242.85 675.6 242.8 675.2 242.8 674.45
L 242.8 670.5
Q 242.8 670 242.85 669.7 242.85 669.45 243 669
M 250.15 621.1
L 250.15 619.1
Q 250.15 614.2 244.75 614.2 239.25 614.2 239.25 619
L 239.25 621.4
Q 239.25 622.95 239.9 623.75 240.5 624.55 241.6 625.05 240.1 625.7 239.5 626.5 238.9 627.35 238.9 629.35
L 238.9 632.25
Q 238.9 634.65 240.35 636 241.8 637.4 244.75 637.4 247.2 637.4 248.8 636.15 250.4 634.85 250.4 632.35
L 250.4 628.85
Q 250.4 627.35 249.85 626.45 249.25 625.6 247.8 625.05 249.2 624.35 249.7 623.55 250.15 622.8 250.15 621.1
M 246.45 619.15
L 246.45 621.5
Q 246.45 622.2 246.4 622.55 246.35 622.9 245.95 623.3 245.55 623.65 244.75 623.65 243.85 623.65 243.45 623.2 243 622.8 243 621.75
L 243 618.95
Q 243 617.3 244.75 617.3 246.45 617.3 246.45 619.15
M 243.45 626.95
Q 243.9 626.5 244.75 626.5 246.55 626.5 246.55 628.75
L 246.55 632.25
Q 246.55 634.3 244.7 634.3 242.85 634.3 242.85 632.25
L 242.85 628.75
Q 242.85 628.1 242.9 627.75 242.95 627.35 243.45 626.95
M 236.9 568.1
Q 236.9 565.5 235.3 564.35 233.75 563.2 231.15 563.2 228.55 563.2 227.15 564.4 225.75 565.65 225.75 568.2
L 225.75 571.1 229.45 571.1 229.45 568.4
Q 229.45 566.2 231.35 566.2 233 566.2 233 568.2
L 233 570.75
Q 233 572 232.5 572.75 232 573.45 229.4 576.05 227.05 578.4 226.15 580.4 225.25 582.45 225.25 585.95
L 225.25 586.1 237.15 586.1 237.15 582.7 229.65 582.7
Q 229.65 581.9 230.1 581.1 230.55 580.25 230.95 579.8 231.3 579.4 232.15 578.55
L 234.15 576.55
Q 235.75 574.9 236.35 573.85 236.9 572.75 236.9 571.1
L 236.9 568.1
M 240.6 564.4
Q 239.2 565.65 239.2 568.2
L 239.2 571.1 242.9 571.1 242.9 568.4
Q 242.9 566.2 244.8 566.2 246.45 566.2 246.45 568.2
L 246.45 570.75
Q 246.45 572 245.95 572.75 245.45 573.45 242.85 576.05 240.5 578.4 239.6 580.4 238.7 582.45 238.7 585.95
L 238.7 586.1 250.6 586.1 250.6 582.7 243.1 582.7
Q 243.1 581.9 243.55 581.1 244 580.25 244.4 579.8 244.75 579.4 245.6 578.55
L 247.6 576.55
Q 249.2 574.9 249.8 573.85 250.35 572.75 250.35 571.1
L 250.35 568.1
Q 250.35 565.5 248.75 564.35 247.2 563.2 244.6 563.2 242 563.2 240.6 564.4
M 243.05 484.1
L 247 484.1 247 461.5 244.35 461.5
Q 243.8 462.25 243.25 462.9 242.65 463.5 242.2 463.85 241.75 464.2 241.3 464.5 240.8 464.75 240.5 464.85 240.25 464.95 239.95 465.05
L 239.65 465.1 239.65 468.25
Q 241.9 467.9 243.05 466.85
L 243.05 484.1
M 225.75 468.25
L 229.5 468.25 229.5 465.9
Q 229.5 464.3 231.2 464.3 231.8 464.3 232.2 464.45 232.6 464.65 232.75 465 232.9 465.35 232.9 465.55 232.95 465.8 232.95 466.2
L 232.95 467.9
Q 232.95 469.45 232.3 470.05 231.7 470.7 229.95 470.7
L 229.35 470.7 229.35 473.35 230.15 473.35
Q 231.9 473.35 232.5 473.95 233.1 474.6 233.1 476.15
L 233.1 479.55
Q 233.1 481.4 231.4 481.4 230.25 481.4 229.85 480.85 229.45 480.35 229.45 479.4
L 229.45 477 225.55 477 225.55 479.75
Q 225.55 481.95 227.2 483.15 228.85 484.4 231.3 484.4 234.3 484.4 235.65 482.95 237.05 481.5 237.05 479.25
L 237.05 475.75
Q 237.05 474.55 236.85 473.85 236.7 473.15 236.15 472.75 235.6 472.35 235.2 472.25 234.8 472.1 233.65 471.9 235.4 471.6 236.15 470.85 236.9 470.15 236.9 468.4
L 236.9 465.85
Q 236.9 463.85 235.55 462.5 234.2 461.2 231.4 461.2 228.95 461.2 227.35 462.25 225.75 463.3 225.75 465.45
L 225.75 468.25
M 230.9 410.5
Q 230.35 411.25 229.8 411.9 229.2 412.5 228.75 412.85 228.3 413.2 227.85 413.5 227.35 413.75 227.05 413.85 226.8 413.95 226.5 414.05
L 226.2 414.1 226.2 417.25
Q 228.45 416.9 229.6 415.85
L 229.6 433.1 233.55 433.1 233.55 410.5 230.9 410.5
M 249.25 410.4
L 244.5 410.4 238.7 425.65 238.7 428.8 245.6 428.8 245.6 433.1 249.25 433.1 249.25 428.8 250.6 428.8 250.6 425.65 249.25 425.65 249.25 410.4
M 245.85 414.4
L 245.6 425.65 242.05 425.65 245.85 414.4
M 240.6 360.45
Q 239 361.75 239 364.45
L 239 376.95
Q 239 378 239.2 378.8 239.35 379.65 239.95 380.5 240.5 381.4 241.7 381.9 242.95 382.4 244.85 382.4 247.65 382.4 249.05 380.9 250.45 379.4 250.45 376.95
L 250.45 364.75
Q 250.45 359.2 244.65 359.2 242.2 359.2 240.6 360.45
M 242.9 364.5
Q 242.9 363.8 242.95 363.4 243.05 363 243.5 362.55 243.9 362.15 244.75 362.15 245.85 362.15 246.2 362.75 246.55 363.35 246.55 364.7
L 246.55 376.95
Q 246.55 378.15 246.1 378.75 245.7 379.35 244.65 379.35 242.9 379.35 242.9 377.25
L 242.9 364.5
M 229.45 364.4
Q 229.45 362.2 231.35 362.2 233 362.2 233 364.2
L 233 366.75
Q 233 368 232.5 368.75 232 369.45 229.4 372.05 227.05 374.4 226.15 376.4 225.25 378.45 225.25 381.95
L 225.25 382.1 237.15 382.1 237.15 378.7 229.65 378.7
Q 229.65 377.9 230.1 377.1 230.55 376.25 230.95 375.8 231.3 375.4 232.15 374.55
L 234.15 372.55
Q 235.75 370.9 236.35 369.85 236.9 368.75 236.9 367.1
L 236.9 364.1
Q 236.9 361.5 235.3 360.35 233.75 359.2 231.15 359.2 228.55 359.2 227.15 360.4 225.75 361.65 225.75 364.2
L 225.75 367.1 229.45 367.1 229.45 364.4
M 249 258.5
Q 247.65 257.2 244.85 257.2 242.4 257.2 240.8 258.25 239.2 259.3 239.2 261.45
L 239.2 264.25 242.95 264.25 242.95 261.9
Q 242.95 260.3 244.65 260.3 245.25 260.3 245.65 260.45 246.05 260.65 246.2 261 246.35 261.35 246.35 261.55 246.4 261.8 246.4 262.2
L 246.4 263.9
Q 246.4 265.45 245.75 266.05 245.15 266.7 243.4 266.7
L 242.8 266.7 242.8 269.35 243.6 269.35
Q 245.35 269.35 245.95 269.95 246.55 270.6 246.55 272.15
L 246.55 275.55
Q 246.55 277.4 244.85 277.4 243.7 277.4 243.3 276.85 242.9 276.35 242.9 275.4
L 242.9 273 239 273 239 275.75
Q 239 277.95 240.65 279.15 242.3 280.4 244.75 280.4 247.75 280.4 249.1 278.95 250.5 277.5 250.5 275.25
L 250.5 271.75
Q 250.5 270.55 250.3 269.85 250.15 269.15 249.6 268.75 249.05 268.35 248.65 268.25 248.25 268.1 247.1 267.9 248.85 267.6 249.6 266.85 250.35 266.15 250.35 264.4
L 250.35 261.85
Q 250.35 259.85 249 258.5
M 231.4 257.2
Q 228.95 257.2 227.35 258.25 225.75 259.3 225.75 261.45
L 225.75 264.25 229.5 264.25 229.5 261.9
Q 229.5 260.3 231.2 260.3 231.8 260.3 232.2 260.45 232.6 260.65 232.75 261 232.9 261.35 232.9 261.55 232.95 261.8 232.95 262.2
L 232.95 263.9
Q 232.95 265.45 232.3 266.05 231.7 266.7 229.95 266.7
L 229.35 266.7 229.35 269.35 230.15 269.35
Q 231.9 269.35 232.5 269.95 233.1 270.6 233.1 272.15
L 233.1 275.55
Q 233.1 277.4 231.4 277.4 230.25 277.4 229.85 276.85 229.45 276.35 229.45 275.4
L 229.45 273 225.55 273 225.55 275.75
Q 225.55 277.95 227.2 279.15 228.85 280.4 231.3 280.4 234.3 280.4 235.65 278.95 237.05 277.5 237.05 275.25
L 237.05 271.75
Q 237.05 270.55 236.85 269.85 236.7 269.15 236.15 268.75 235.6 268.35 235.2 268.25 234.8 268.1 233.65 267.9 235.4 267.6 236.15 266.85 236.9 266.15 236.9 264.4
L 236.9 261.85
Q 236.9 259.85 235.55 258.5 234.2 257.2 231.4 257.2
M 150.75 815.6
L 128.15 815.6 128.15 819.75 150.75 819.75 150.75 815.6
M 150.75 812.4
L 150.75 801.15 147.25 801.15 147.25 808.25 140.3 808.25 140.3 801.85 136.9 801.85 136.9 808.25 131.6 808.25 131.6 801.45 128.15 801.45 128.15 812.4 150.75 812.4
M 150.75 788.8
L 147.35 788.8 147.35 794.9 128.15 794.9 128.15 799.05 150.75 799.05 150.75 788.8
M 230.9 206.5
Q 230.35 207.25 229.8 207.9 229.2 208.5 228.75 208.85 228.3 209.2 227.85 209.5 227.35 209.75 227.05 209.85 226.8 209.95 226.5 210.05
L 226.2 210.1 226.2 213.25
Q 228.45 212.9 229.6 211.85
L 229.6 229.1 233.55 229.1 233.55 206.5 230.9 206.5
M 244.85 209.2
Q 245.9 209.2 246.25 209.75 246.55 210.2 246.55 211.15
L 246.55 212.5 250.3 212.5 250.3 210.75
Q 250.3 206.2 244.85 206.2 242.1 206.2 240.6 207.4 239.05 208.65 239.05 211.1
L 239.05 224.45
Q 239.05 227.1 240.75 228.25 242.45 229.4 244.8 229.4 246.4 229.4 247.55 228.95 248.7 228.5 249.25 227.9 249.85 227.35 250.15 226.5 250.45 225.65 250.5 225.2 250.5 224.75 250.5 224.15
L 250.5 218.9
Q 250.5 217.1 249.6 215.8 248.7 214.5 246.55 214.5 244.6 214.5 242.95 215.9
L 242.95 211.3
Q 242.95 209.2 244.85 209.2
M 246.55 219.35
Q 246.6 219.65 246.6 220.2
L 246.6 224.25
Q 246.6 226.3 244.85 226.3 243.95 226.3 243.5 225.8 243.05 225.3 243 224.85 242.95 224.4 242.95 223.7
L 242.95 220
Q 242.95 217.75 244.85 217.75 245.45 217.75 245.85 217.95 246.25 218.2 246.4 218.6 246.55 219.05 246.55 219.35
M 238.7 170.65
L 238.7 173.8 245.6 173.8 245.6 178.1 249.25 178.1 249.25 173.8 250.6 173.8 250.6 170.65 249.25 170.65 249.25 155.4 244.5 155.4 238.7 170.65
M 245.85 159.4
L 245.6 170.65 242.05 170.65 245.85 159.4
M 236.9 160.1
Q 236.9 157.5 235.3 156.35 233.75 155.2 231.15 155.2 228.55 155.2 227.15 156.4 225.75 157.65 225.75 160.2
L 225.75 163.1 229.45 163.1 229.45 160.4
Q 229.45 158.2 231.35 158.2 233 158.2 233 160.2
L 233 162.75
Q 233 164 232.5 164.75 232 165.45 229.4 168.05 227.05 170.4 226.15 172.4 225.25 174.45 225.25 177.95
L 225.25 178.1 237.15 178.1 237.15 174.7 229.65 174.7
Q 229.65 173.9 230.1 173.1 230.55 172.25 230.95 171.8 231.3 171.4 232.15 170.55
L 234.15 168.55
Q 235.75 166.9 236.35 165.85 236.9 164.75 236.9 163.1
L 236.9 160.1
M 133.25 822.2
Q 132.3 822.2 131.8 822.25 131.25 822.25 130.45 822.5 129.65 822.7 129.25 823.1 128.8 823.45 128.5 824.2 128.15 824.95 128.15 826.05
L 128.15 834.4 150.75 834.4 150.75 830.2 141.35 830.2 141.35 826.7
Q 141.35 823.9 140.3 823.05 139.25 822.2 136.2 822.2
L 133.25 822.2
M 132 826.65
Q 132.5 826.3 133.7 826.3
L 136.1 826.3
Q 137.25 826.3 137.65 826.6 138.1 826.9 138.1 828.1
L 138.1 830.2 131.5 830.2 131.5 828.1
Q 131.5 826.95 132 826.65
M 149.75 838.35
Q 148.25 837.05 145.6 837.05
L 143.45 837.05
Q 140.65 837.05 138.8 839.8
L 136.05 843.85
Q 135.4 844.75 134.85 845 134.25 845.2 133.3 845.2 131.9 845.2 131.35 844.75 130.85 844.3 130.85 843.3 130.85 841.45 132.8 841.45
L 134.8 841.45 134.8 837.35 132.55 837.35
Q 130.05 837.35 128.85 839.05 127.65 840.7 127.65 843.15 127.65 849.3 133.25 849.3
L 133.7 849.3
Q 134.9 849.3 135.8 849.05 136.65 848.8 137.3 848.4 137.9 847.95 138.25 847.55 138.65 847.15 139 846.6
L 141.65 842.65
Q 142.15 841.9 142.75 841.55 143.4 841.2 144.5 841.2
L 145.25 841.2
Q 146.75 841.2 147.4 841.6 148.05 842 148.05 843.3 148.05 844.15 147.65 844.6 147.3 845.1 146.9 845.2 146.5 845.3 145.9 845.3
L 142.8 845.3 142.8 849.45 146.1 849.45
Q 147.6 849.45 148.65 848.9 149.7 848.35 150.25 847.4 150.8 846.45 151 845.4 151.25 844.4 151.25 843.15 151.25 839.7 149.75 838.35
M 151.25 865.65
Q 151.25 859.45 145.95 859.45
L 132.85 859.45
Q 130.25 859.45 128.95 861.05 127.65 862.7 127.65 865.6 127.65 869.05 129.15 870.5 130.55 871.95 133.25 871.95
L 146 871.95
Q 151.25 871.95 151.25 865.65
M 147.7 864.5
Q 147.95 864.95 147.95 865.65 147.95 866.65 147.5 867.15 147.05 867.6 146.55 867.7 146.05 867.8 145.2 867.8
L 133.85 867.8
Q 133.3 867.8 133 867.75 132.75 867.75 132.25 867.65 131.8 867.5 131.5 867.3 131.25 867.1 131.05 866.7 130.85 866.25 130.85 865.65 130.85 864.95 131.1 864.5 131.35 864.05 131.85 863.85 132.35 863.7 132.7 863.65 133.05 863.6 133.65 863.6
L 145.3 863.6
Q 145.9 863.6 146.2 863.65 146.55 863.7 147 863.85 147.5 864.05 147.7 864.5
M 147.25 902.85
L 147.25 910.1 130.4 902.75 128.15 902.75 128.15 913.75 131.65 913.75 131.65 907.45 148.15 914.65 150.75 914.65 150.75 902.85 147.25 902.85
M 131.6 889.5
L 128.15 889.5 128.15 900.45 150.75 900.45 150.75 889.2 147.25 889.2 147.25 896.3 140.3 896.3 140.3 889.9 136.9 889.9 136.9 896.3 131.6 896.3 131.6 889.5
M 135.35 874.7
L 132.25 874.7
Q 130.15 874.7 129.15 875.7 128.15 876.65 128.15 878.8
L 128.15 887.1 150.75 887.1 150.75 882.95 140.8 882.95 140.8 880.85
Q 140.8 879.6 141.35 879.2 141.9 878.8 143.3 878.8
L 148.6 878.8
Q 148.85 878.8 149.1 878.75 149.35 878.7 149.5 878.7 149.65 878.65 149.9 878.6 150.1 878.55 150.15 878.45 150.25 878.4 150.45 878.3 150.65 878.2 150.75 878.15
L 150.75 873.6
Q 150.25 874.55 147.75 874.55
L 143.15 874.55
Q 139.85 874.55 139.2 877.6 138.9 875.9 138 875.3 137.15 874.7 135.35 874.7
M 131.4 882.95
L 131.4 880.7
Q 131.4 879.7 131.8 879.3 132.15 878.85 133.25 878.85
L 135.5 878.85
Q 136.65 878.85 137.1 879.25 137.55 879.65 137.55 880.75
L 137.55 882.95 131.4 882.95
M 151.65 683.75
Q 148.95 683.75 147.55 685.05 146.15 686.4 146.15 688.8
L 146.15 696.15 168.75 696.15 168.75 689.45
Q 168.75 686.6 167.5 685.15 166.2 683.75 162.95 683.75
L 151.65 683.75
M 149.45 692
L 149.45 690.1
Q 149.45 688.85 149.95 688.35 150.45 687.85 151.75 687.85
L 163 687.85
Q 164.4 687.85 164.9 688.35 165.45 688.85 165.45 690.25
L 165.45 692 149.45 692
M 146.15 668.6
L 146.15 672.8 162.9 672.8
Q 163.55 672.8 163.95 672.85 164.35 672.9 164.8 673.05 165.25 673.2 165.45 673.65 165.65 674.05 165.65 674.7 165.65 675.95 165 676.3 164.3 676.65 162.95 676.65
L 146.15 676.65 146.15 680.85 163.55 680.85
Q 166.35 680.85 167.8 679.3 169.25 677.75 169.25 674.85 169.25 668.6 163.65 668.6
L 146.15 668.6
M 146.15 658.05
L 149.65 658.05 149.65 651.75 166.15 658.95 168.75 658.95 168.75 647.15 165.25 647.15 165.25 654.4 148.4 647.05 146.15 647.05 146.15 658.05
M 149.6 633.8
L 146.15 633.8 146.15 644.75 168.75 644.75 168.75 633.5 165.25 633.5 165.25 640.6 158.3 640.6 158.3 634.2 154.9 634.2 154.9 640.6 149.6 640.6 149.6 633.8
M 159.35 623.5
Q 159.9 623.1 161.3 623.1
L 166.6 623.1
Q 166.85 623.1 167.1 623.05 167.35 623 167.5 623 167.65 622.95 167.9 622.9 168.1 622.85 168.15 622.75 168.25 622.7 168.45 622.6 168.65 622.5 168.75 622.45
L 168.75 617.9
Q 168.25 618.85 165.75 618.85
L 161.15 618.85
Q 157.85 618.85 157.2 621.9 156.9 620.2 156 619.6 155.15 619 153.35 619
L 150.25 619
Q 148.15 619 147.15 620 146.15 620.95 146.15 623.1
L 146.15 631.4 168.75 631.4 168.75 627.25 158.8 627.25 158.8 625.15
Q 158.8 623.9 159.35 623.5
M 153.5 623.15
Q 154.65 623.15 155.1 623.55 155.55 623.95 155.55 625.05
L 155.55 627.25 149.4 627.25 149.4 625
Q 149.4 624 149.8 623.6 150.15 623.15 151.25 623.15
L 153.5 623.15
M 150.85 603.75
Q 148.25 603.75 146.95 605.35 145.65 607 145.65 609.9 145.65 613.35 147.15 614.8 148.55 616.25 151.25 616.25
L 164 616.25
Q 169.25 616.25 169.25 609.95 169.25 603.75 163.95 603.75
L 150.85 603.75
M 150.7 607.95
Q 151.05 607.9 151.65 607.9
L 163.3 607.9
Q 163.9 607.9 164.2 607.95 164.55 608 165 608.15 165.5 608.35 165.7 608.8 165.95 609.25 165.95 609.95 165.95 610.95 165.5 611.45 165.05 611.9 164.55 612 164.05 612.1 163.2 612.1
L 151.85 612.1
Q 151.3 612.1 151 612.05 150.75 612.05 150.25 611.95 149.8 611.8 149.5 611.6 149.25 611.4 149.05 611 148.85 610.55 148.85 609.95 148.85 609.25 149.1 608.8 149.35 608.35 149.85 608.15 150.35 608 150.7 607.95
M 131.55 608
Q 130.05 606.7 127.4 606.7
L 125.25 606.7
Q 122.45 606.7 120.6 609.45
L 117.85 613.5
Q 117.2 614.4 116.65 614.65 116.05 614.85 115.1 614.85 113.7 614.85 113.15 614.4 112.65 613.95 112.65 612.95 112.65 611.1 114.6 611.1
L 116.6 611.1 116.6 607 114.35 607
Q 111.85 607 110.65 608.7 109.45 610.35 109.45 612.8 109.45 618.95 115.05 618.95
L 115.5 618.95
Q 116.7 618.95 117.6 618.7 118.45 618.45 119.1 618.05 119.7 617.6 120.05 617.2 120.45 616.8 120.8 616.25
L 123.45 612.3
Q 123.95 611.55 124.55 611.2 125.2 610.85 126.3 610.85
L 127.05 610.85
Q 128.55 610.85 129.2 611.25 129.85 611.65 129.85 612.95 129.85 613.8 129.45 614.25 129.1 614.75 128.7 614.85 128.3 614.95 127.7 614.95
L 124.6 614.95 124.6 619.1 127.9 619.1
Q 129.4 619.1 130.45 618.55 131.5 618 132.05 617.05 132.6 616.1 132.8 615.05 133.05 614.05 133.05 612.8 133.05 609.35 131.55 608
M 132.55 627.15
L 132.55 621.9 109.95 621.9 109.95 625.7
Q 112.85 625.65 126.55 625.3
L 109.95 629.35 109.95 634.7 132.55 634.7 132.55 630.8
Q 126.1 630.95 115.65 631.15
L 132.55 627.15
M 132.55 642.05
L 132.55 637.9 109.95 637.9 109.95 642.05 132.55 642.05
M 116.6 649.1
L 116.6 645 114.35 645
Q 111.85 645 110.65 646.7 109.45 648.35 109.45 650.8 109.45 656.95 115.05 656.95
L 115.5 656.95
Q 116.7 656.95 117.6 656.7 118.45 656.45 119.1 656.05 119.7 655.6 120.05 655.2 120.45 654.8 120.8 654.25
L 123.45 650.3
Q 123.95 649.55 124.55 649.2 125.2 648.85 126.3 648.85
L 127.05 648.85
Q 128.55 648.85 129.2 649.25 129.85 649.65 129.85 650.95 129.85 651.8 129.45 652.25 129.1 652.75 128.7 652.85 128.3 652.95 127.7 652.95
L 124.6 652.95 124.6 657.1 127.9 657.1
Q 129.4 657.1 130.45 656.55 131.5 656 132.05 655.05 132.6 654.1 132.8 653.05 133.05 652.05 133.05 650.8 133.05 647.35 131.55 646 130.05 644.7 127.4 644.7
L 125.25 644.7
Q 122.45 644.7 120.6 647.45
L 117.85 651.5
Q 117.2 652.4 116.65 652.65 116.05 652.85 115.1 652.85 113.7 652.85 113.15 652.4 112.65 651.95 112.65 650.95 112.65 649.1 114.6 649.1
L 116.6 649.1
M 109.95 681.25
L 109.95 685.5 124.9 687.55 109.95 689.75 109.95 694.15 132.55 689.7 132.55 685.5 109.95 681.25
M 109.45 673.25
Q 109.45 676.7 110.95 678.15 112.35 679.6 115.05 679.6
L 127.8 679.6
Q 133.05 679.6 133.05 673.3 133.05 667.1 127.75 667.1
L 114.65 667.1
Q 112.05 667.1 110.75 668.7 109.45 670.35 109.45 673.25
M 114.5 671.3
Q 114.85 671.25 115.45 671.25
L 127.1 671.25
Q 127.7 671.25 128 671.3 128.35 671.35 128.8 671.5 129.3 671.7 129.5 672.15 129.75 672.6 129.75 673.3 129.75 674.3 129.3 674.8 128.85 675.25 128.35 675.35 127.85 675.45 127 675.45
L 115.65 675.45
Q 115.1 675.45 114.8 675.4 114.55 675.4 114.05 675.3 113.6 675.15 113.3 674.95 113.05 674.75 112.85 674.35 112.65 673.9 112.65 673.3 112.65 672.6 112.9 672.15 113.15 671.7 113.65 671.5 114.15 671.35 114.5 671.3
M 109.95 659.9
L 109.95 664.05 132.55 664.05 132.55 659.9 109.95 659.9
M 149.75 393.85
Q 148.25 392.55 145.6 392.55
L 143.45 392.55
Q 140.65 392.55 138.8 395.3
L 136.05 399.35
Q 135.4 400.25 134.85 400.5 134.25 400.7 133.3 400.7 131.9 400.7 131.35 400.25 130.85 399.8 130.85 398.8 130.85 396.95 132.8 396.95
L 134.8 396.95 134.8 392.85 132.55 392.85
Q 130.05 392.85 128.85 394.55 127.65 396.2 127.65 398.65 127.65 404.8 133.25 404.8
L 133.7 404.8
Q 134.9 404.8 135.8 404.55 136.65 404.3 137.3 403.9 137.9 403.45 138.25 403.05 138.65 402.65 139 402.1
L 141.65 398.15
Q 142.15 397.4 142.75 397.05 143.4 396.7 144.5 396.7
L 145.25 396.7
Q 146.75 396.7 147.4 397.1 148.05 397.5 148.05 398.8 148.05 399.65 147.65 400.1 147.3 400.6 146.9 400.7 146.5 400.8 145.9 400.8
L 142.8 400.8 142.8 404.95 146.1 404.95
Q 147.6 404.95 148.65 404.4 149.7 403.85 150.25 402.9 150.8 401.95 151 400.9 151.25 399.9 151.25 398.65 151.25 395.2 149.75 393.85
M 128.15 423.75
L 128.15 427.9 150.75 427.9 150.75 423.75 128.15 423.75
M 128.15 435.75
L 128.15 439.9 150.75 439.9 150.75 429.65 147.35 429.65 147.35 435.75 128.15 435.75
M 150.75 420.55
L 150.75 416.65
Q 144.3 416.8 133.85 417
L 150.75 413 150.75 407.75 128.15 407.75 128.15 411.55
Q 131.05 411.5 144.75 411.15
L 128.15 415.2 128.15 420.55 150.75 420.55
M 146 514.15
Q 151.25 514.15 151.25 507.85 151.25 501.65 145.95 501.65
L 132.85 501.65
Q 130.25 501.65 128.95 503.25 127.65 504.9 127.65 507.8 127.65 511.25 129.15 512.7 130.55 514.15 133.25 514.15
L 146 514.15
M 145.3 505.8
Q 145.9 505.8 146.2 505.85 146.55 505.9 147 506.05 147.5 506.25 147.7 506.7 147.95 507.15 147.95 507.85 147.95 508.85 147.5 509.35 147.05 509.8 146.55 509.9 146.05 510 145.2 510
L 133.85 510
Q 133.3 510 133 509.95 132.75 509.95 132.25 509.85 131.8 509.7 131.5 509.5 131.25 509.3 131.05 508.9 130.85 508.45 130.85 507.85 130.85 507.15 131.1 506.7 131.35 506.25 131.85 506.05 132.35 505.9 132.7 505.85 133.05 505.8 133.65 505.8
L 145.3 505.8
M 129.15 487.2
Q 128.15 488.15 128.15 490.3
L 128.15 498.6 150.75 498.6 150.75 494.45 140.8 494.45 140.8 492.35
Q 140.8 491.1 141.35 490.7 141.9 490.3 143.3 490.3
L 148.6 490.3
Q 148.85 490.3 149.1 490.25 149.35 490.2 149.5 490.2 149.65 490.15 149.9 490.1 150.1 490.05 150.15 489.95 150.25 489.9 150.45 489.8 150.65 489.7 150.75 489.65
L 150.75 485.1
Q 150.25 486.05 147.75 486.05
L 143.15 486.05
Q 139.85 486.05 139.2 489.1 138.9 487.4 138 486.8 137.15 486.2 135.35 486.2
L 132.25 486.2
Q 130.15 486.2 129.15 487.2
M 131.4 494.45
L 131.4 492.2
Q 131.4 491.2 131.8 490.8 132.15 490.35 133.25 490.35
L 135.5 490.35
Q 136.65 490.35 137.1 490.75 137.55 491.15 137.55 492.25
L 137.55 494.45 131.4 494.45
M 141.35 475.55
Q 141.35 472.75 140.3 471.9 139.25 471.05 136.2 471.05
L 133.25 471.05
Q 132.3 471.05 131.8 471.1 131.25 471.1 130.45 471.35 129.65 471.55 129.25 471.95 128.8 472.3 128.5 473.05 128.15 473.8 128.15 474.9
L 128.15 483.25 150.75 483.25 150.75 479.05 141.35 479.05 141.35 475.55
M 133.7 475.15
L 136.1 475.15
Q 137.25 475.15 137.65 475.45 138.1 475.75 138.1 476.95
L 138.1 479.05 131.5 479.05 131.5 476.95
Q 131.5 475.8 132 475.5 132.5 475.15 133.7 475.15
M 150.75 468.6
L 150.75 464.45 140.4 464.45 140.4 460.65 150.75 460.65 150.75 456.45 128.15 456.45 128.15 460.65 137 460.65 137 464.45 128.15 464.45 128.15 468.6 150.75 468.6
M 131.6 442.3
L 128.15 442.3 128.15 453.25 150.75 453.25 150.75 442 147.25 442 147.25 449.1 140.3 449.1 140.3 442.7 136.9 442.7 136.9 449.1 131.6 449.1 131.6 442.3
M 150.75 225.6
L 150.75 221.45 128.15 221.45 128.15 225.6 150.75 225.6
M 131.4 227.25
L 128.15 227.25 128.15 239.8 131.4 239.8 131.4 235.65 150.75 235.65 150.75 231.45 131.4 231.45 131.4 227.25
M 150.75 218.25
L 150.75 207 147.25 207 147.25 214.1 140.3 214.1 140.3 207.7 136.9 207.7 136.9 214.1 131.6 214.1 131.6 207.3 128.15 207.3 128.15 218.25 150.75 218.25
M 129.15 193.5
Q 128.15 194.45 128.15 196.6
L 128.15 204.9 150.75 204.9 150.75 200.75 140.8 200.75 140.8 198.65
Q 140.8 197.4 141.35 197 141.9 196.6 143.3 196.6
L 148.6 196.6
Q 148.85 196.6 149.1 196.55 149.35 196.5 149.5 196.5 149.65 196.45 149.9 196.4 150.1 196.35 150.15 196.25 150.25 196.2 150.45 196.1 150.65 196 150.75 195.95
L 150.75 191.4
Q 150.25 192.35 147.75 192.35
L 143.15 192.35
Q 139.85 192.35 139.2 195.4 138.9 193.7 138 193.1 137.15 192.5 135.35 192.5
L 132.25 192.5
Q 130.15 192.5 129.15 193.5
M 131.8 197.1
Q 132.15 196.65 133.25 196.65
L 135.5 196.65
Q 136.65 196.65 137.1 197.05 137.55 197.45 137.55 198.55
L 137.55 200.75 131.4 200.75 131.4 198.5
Q 131.4 197.5 131.8 197.1
M 57.15 951.4
Q 57.15 945.85 51.35 945.85 48.9 945.85 47.3 947.1 45.7 948.4 45.7 951.1
L 45.7 963.6
Q 45.7 964.65 45.9 965.45 46.05 966.3 46.65 967.15 47.2 968.05 48.4 968.55 49.65 969.05 51.55 969.05 54.35 969.05 55.75 967.55 57.15 966.05 57.15 963.6
L 57.15 951.4
M 52.9 949.4
Q 53.25 950 53.25 951.35
L 53.25 963.6
Q 53.25 964.8 52.8 965.4 52.4 966 51.35 966 49.6 966 49.6 963.9
L 49.6 951.15
Q 49.6 950.45 49.65 950.05 49.75 949.65 50.2 949.2 50.6 948.8 51.45 948.8 52.55 948.8 52.9 949.4
M 225.65 950.55
Q 225.65 948.95 227.35 948.95 227.95 948.95 228.35 949.1 228.75 949.3 228.9 949.65 229.05 950 229.05 950.2 229.1 950.45 229.1 950.85
L 229.1 952.55
Q 229.1 954.1 228.45 954.7 227.85 955.35 226.1 955.35
L 225.5 955.35 225.5 958 226.3 958
Q 228.05 958 228.65 958.6 229.25 959.25 229.25 960.8
L 229.25 964.2
Q 229.25 966.05 227.55 966.05 226.4 966.05 226 965.5 225.6 965 225.6 964.05
L 225.6 961.65 221.7 961.65 221.7 964.4
Q 221.7 966.6 223.35 967.8 225 969.05 227.45 969.05 230.45 969.05 231.8 967.6 233.2 966.15 233.2 963.9
L 233.2 960.4
Q 233.2 959.2 233 958.5 232.85 957.8 232.3 957.4 231.75 957 231.35 956.9 230.95 956.75 229.8 956.55 231.55 956.25 232.3 955.5 233.05 954.8 233.05 953.05
L 233.05 950.5
Q 233.05 948.5 231.7 947.15 230.35 945.85 227.55 945.85 225.1 945.85 223.5 946.9 221.9 947.95 221.9 950.1
L 221.9 952.9 225.65 952.9 225.65 950.55
M 231.9 716.5
L 231.9 722.5 235.2 722.5 235.2 719.85 240.5 719.85
Q 238.2 723.65 236.35 729.2 234.5 734.75 234.35 739.1
L 238.6 739.1
Q 238.6 733.75 240.25 728.75 241.85 723.75 244.1 719.85
L 244.1 716.5 231.9 716.5
M 45.85 734.8
L 45.85 731.65 44.5 731.65 44.5 716.4 39.75 716.4 33.95 731.65 33.95 734.8 40.85 734.8 40.85 739.1 44.5 739.1 44.5 734.8 45.85 734.8
M 41.1 720.4
L 40.85 731.65 37.3 731.65 41.1 720.4
M 45.85 637.1
L 45.85 633.7 38.35 633.7
Q 38.35 632.9 38.8 632.1 39.25 631.25 39.65 630.8 40 630.4 40.85 629.55
L 42.85 627.55
Q 44.45 625.9 45.05 624.85 45.6 623.75 45.6 622.1
L 45.6 619.1
Q 45.6 616.5 44 615.35 42.45 614.2 39.85 614.2 37.25 614.2 35.85 615.4 34.45 616.65 34.45 619.2
L 34.45 622.1 38.15 622.1 38.15 619.4
Q 38.15 617.2 40.05 617.2 41.7 617.2 41.7 619.2
L 41.7 621.75
Q 41.7 623 41.2 623.75 40.7 624.45 38.1 627.05 35.75 629.4 34.85 631.4 33.95 633.45 33.95 636.95
L 33.95 637.1 45.85 637.1
M 45.55 416.5
L 45.55 414.75
Q 45.55 410.2 40.1 410.2 37.35 410.2 35.85 411.4 34.3 412.65 34.3 415.1
L 34.3 428.45
Q 34.3 431.1 36 432.25 37.7 433.4 40.05 433.4 41.65 433.4 42.8 432.95 43.95 432.5 44.5 431.9 45.1 431.35 45.4 430.5 45.7 429.65 45.75 429.2 45.75 428.75 45.75 428.15
L 45.75 422.9
Q 45.75 421.1 44.85 419.8 43.95 418.5 41.8 418.5 39.85 418.5 38.2 419.9
L 38.2 415.3
Q 38.2 413.2 40.1 413.2 41.15 413.2 41.5 413.75 41.8 414.2 41.8 415.15
L 41.8 416.5 45.55 416.5
M 41.1 421.95
Q 41.5 422.2 41.65 422.6 41.8 423.05 41.8 423.35 41.85 423.65 41.85 424.2
L 41.85 428.25
Q 41.85 430.3 40.1 430.3 39.2 430.3 38.75 429.8 38.3 429.3 38.25 428.85 38.2 428.4 38.2 427.7
L 38.2 424
Q 38.2 421.75 40.1 421.75 40.7 421.75 41.1 421.95
M 238 512.2
Q 235 512.2 233.55 513.45 232.15 514.75 232.15 517.45
L 232.15 523.05
Q 232.15 524.75 233.1 525.9 234.05 527 236.3 527 238.1 527 239.75 525.7
L 239.75 530.45
Q 239.75 531.55 239.25 532 238.8 532.4 237.85 532.4 236.8 532.4 236.4 531.9 236.05 531.4 236.05 530.45
L 236.05 529 232.15 529 232.15 530.8
Q 232.15 533.2 233.7 534.3 235.25 535.4 237.65 535.4 243.6 535.4 243.6 530.25
L 243.6 517.15
Q 243.6 512.2 238 512.2
M 236.05 517.5
Q 236.05 517 236.1 516.7 236.1 516.45 236.25 516 236.4 515.65 236.85 515.4 237.3 515.2 237.95 515.2 239.75 515.2 239.75 517.3
L 239.75 521.45
Q 239.75 521.95 239.7 522.3 239.7 522.6 239.5 523.05 239.35 523.5 238.9 523.7 238.5 523.9 237.8 523.9 237 523.9 236.6 523.45 236.15 523 236.1 522.6 236.05 522.2 236.05 521.45
L 236.05 517.5
M 240.25 308.5
L 237.6 308.5
Q 237.05 309.25 236.5 309.9 235.9 310.5 235.45 310.85 235 311.2 234.55 311.5 234.05 311.75 233.75 311.85 233.5 311.95 233.2 312.05
L 232.9 312.1 232.9 315.25
Q 235.15 314.9 236.3 313.85
L 236.3 331.1 240.25 331.1 240.25 308.5
M 39 96.5
L 39 98.9
Q 39 100.45 39.65 101.25 40.25 102.05 41.35 102.55 39.85 103.2 39.25 104 38.65 104.85 38.65 106.85
L 38.65 109.75
Q 38.65 112.15 40.1 113.5 41.55 114.9 44.5 114.9 46.95 114.9 48.55 113.65 50.15 112.35 50.15 109.85
L 50.15 106.35
Q 50.15 104.85 49.6 103.95 49 103.1 47.55 102.55 48.95 101.85 49.45 101.05 49.9 100.3 49.9 98.6
L 49.9 96.6
Q 49.9 91.7 44.5 91.7 39 91.7 39 96.5
M 42.75 96.45
Q 42.75 94.8 44.5 94.8 46.2 94.8 46.2 96.65
L 46.2 99
Q 46.2 99.7 46.15 100.05 46.1 100.4 45.7 100.8 45.3 101.15 44.5 101.15 43.6 101.15 43.2 100.7 42.75 100.3 42.75 99.25
L 42.75 96.45
M 43.2 104.45
Q 43.65 104 44.5 104 46.3 104 46.3 106.25
L 46.3 109.75
Q 46.3 111.8 44.45 111.8 42.6 111.8 42.6 109.75
L 42.6 106.25
Q 42.6 105.6 42.65 105.25 42.7 104.85 43.2 104.45
M 231.55 95.4
L 238.9 95.4 238.9 92 228.4 92
Q 228.35 93.05 228.15 104.1
L 231.25 104.1
Q 231.4 103.2 231.8 102.65 232.25 102.1 232.65 101.95 233.05 101.8 233.4 101.8 235.2 101.8 235.2 103.95
L 235.2 109.95
Q 235.2 111.8 233.35 111.8 231.6 111.8 231.6 110.1
L 231.6 107.55 227.75 107.55 227.75 109.9
Q 227.75 114.9 233.65 114.9 239.25 114.9 239.25 109.4
L 239.25 103.3
Q 239.25 101.35 238.1 100.1 236.95 98.85 234.85 98.85 232.95 98.85 231.5 100.05
L 231.55 95.4 Z"/>
</g>

<path id="Layer44_0_1_STROKES" stroke="#FFFFFF" stroke-width="3" stroke-linejoin="round" stroke-linecap="round" fill="none" d="
M 139 3
Q 195.75 3 235.85 43.1
L 235.85 43.15
Q 261.85 69.1 271 102 275.5 118 275.95 135.7 276 137.85 276 140 276 141.75 275.95 143.55
L 275.95 191 275.95 242 275.95 293 275.95 344 275.95 395 275.95 446 275.95 497 275.95 548 275.95 599 275.95 650 275.95 701 275.95 752 276 803 276 854 276 905
Q 276 907.15 275.95 909.3 274.45 963.3 235.85 1001.9 230.45 1007.3 224.7 1012 216.5 1018.75 207.65 1023.95 177.1 1042 139 1042 100.85 1042 70.2 1023.9 61.4 1018.7 53.2 1012 47.5 1007.3 42.1 1001.9 6.9 966.7 2.6 918.65 2 911.95 2 905
L 2 854 2 803 2 752 2 701 2 650 2 599 2 548 2 497 2 446 2 395 2 344 2 293 2 242 2 191 2 143.55
Q 2 141.75 2 140 2 133.05 2.6 126.4 3.75 113.75 7 102 16.15 69.05 42.1 43.1 82.2 3 139 3
L 139 79
Q 164.25 79 182.1 96.9
L 235.85 43.15
M 182.1 96.9
Q 184.6 99.4 186.7 102 200 118.25 200 140
L 276 140
M 200 140
L 200 191 275.95 191
M 95.85 96.9
Q 113.75 79 139 79
M 78 140
L 78 191 78 242 78 293 78 344 78 395 200 293 200 242 200 191
M 78 191
L 2 191
M 2 140
L 78 140
Q 78 118.25 91.2 102 93.35 99.4 95.85 96.9
L 42.1 43.1
M 78 293
L 2 293
M 78 242
L 2 242
M 78 344
L 2 344
M 78 395
L 2 395
M 200 344
L 200 395 275.95 395
M 200 293
L 200 344 275.95 344
M 275.95 293
L 200 293
M 275.95 242
L 200 242
M 200 497
L 200 548 275.95 548
M 275.95 497
L 200 497 200 446 200 395
M 275.95 446
L 200 446
M 78 446
L 2 446
M 78 497
L 78 548 200 548 200 599 275.95 599
M 78 497
L 2 497
M 78 548
L 2 548
M 78 446
L 78 497
M 78 650
L 2 650
M 2 599
L 78 599 78 650 78 701 78 752 78 801.45
Q 78.5 779.35 92.9 763 94.35 761.4 95.85 759.9 101.7 754.05 108.3 750.1 122 742 139 742 155.95 742 169.6 750.05 176.25 754.05 182.1 759.9 183.65 761.4 185 763 199.5 779.35 200 801.45
L 200 752.15 200 752 200 701 200 650 200 599
M 78 701
L 2 701
M 78 752
L 2 752
M 200 752.15
L 207.05 752.1 200 752
M 275.95 752
L 207.05 752.1
M 275.95 650
L 200 650
M 275.95 701
L 200 701
M 78 548
L 78 599
M 78 395
L 78 446
M 200 801.45
L 200 803 276 803
M 200 803
L 200 854 276 854
M 169.6 957.95
Q 176.25 953.95 182.1 948.1 200 930.25 200 905
L 200 854
M 276 905
L 200 905
M 78 801.45
L 78 803 78 854 78 905
Q 78 930.25 95.85 948.1 101.7 953.95 108.3 957.9 122 966 139 966 155.95 966 169.6 957.95
L 207.65 1023.95
M 78 854
L 2 854
M 78 803
L 2 803
M 78 905
L 2 905
M 108.3 957.9
L 70.2 1023.9"/>
</defs>

<g transform="matrix( 1, 0, 0, 1, 0,0) ">
<use xlink:href="#Layer44_0_FILL"/>

<use xlink:href="#Layer44_0_1_STROKES"/>
</g>

<g transform="matrix( 1, 0, 0, 1, 0,0) ">
<use xlink:href="#Layer42_0_FILL"/>
</g>
</svg>
