<svg width="342" height="339" viewBox="0 0 342 339" fill="none" xmlns="http://www.w3.org/2000/svg">
<circle cx="170.5" cy="169.5" r="169.5" transform="rotate(-90 170.5 169.5)" fill="url(#paint0_linear)"/>
<circle cx="170.5" cy="169.5" r="169.5" transform="rotate(-90 170.5 169.5)" fill="url(#paint1_linear)"/>
<circle cx="170.5" cy="169.5" r="169.5" transform="rotate(-90 170.5 169.5)" fill="url(#paint2_linear)"/>
<circle cx="170.5" cy="169.5" r="169.5" transform="rotate(-90 170.5 169.5)" fill="url(#paint3_linear)"/>
<circle cx="170.5" cy="169.5" r="169.5" transform="rotate(-90 170.5 169.5)" fill="url(#paint4_linear)"/>
<path d="M120.535 145.809C123.85 147.466 126.368 149.634 128.089 152.311C129.874 154.989 130.767 158.081 130.767 161.587C130.767 165.731 129.588 169.365 127.229 172.489C124.87 175.549 121.555 177.939 117.284 179.661C113.012 181.318 108.071 182.147 102.461 182.147C96.8512 182.147 91.9105 181.318 87.6391 179.661C83.4315 177.939 80.1483 175.549 77.7895 172.489C75.4945 169.365 74.347 165.731 74.347 161.587C74.347 158.081 75.2076 154.989 76.9289 152.311C78.7139 149.634 81.2321 147.466 84.4834 145.809C81.9971 144.279 80.0846 142.366 78.7458 140.071C77.407 137.712 76.7376 135.035 76.7376 132.038C76.7376 128.15 77.8214 124.771 79.989 121.902C82.1565 119.033 85.1847 116.834 89.0735 115.304C92.9624 113.71 97.425 112.913 102.461 112.913C107.561 112.913 112.056 113.71 115.945 115.304C119.897 116.834 122.957 119.033 125.125 121.902C127.293 124.771 128.376 128.15 128.376 132.038C128.376 135.035 127.707 137.712 126.368 140.071C125.029 142.366 123.085 144.279 120.535 145.809ZM102.461 124.293C99.3375 124.293 96.8193 125.058 94.9068 126.588C93.058 128.054 92.1336 130.094 92.1336 132.708C92.1336 135.258 93.058 137.266 94.9068 138.732C96.7556 140.199 99.2738 140.932 102.461 140.932C105.649 140.932 108.199 140.199 110.112 138.732C112.024 137.266 112.98 135.258 112.98 132.708C112.98 130.094 112.024 128.054 110.112 126.588C108.199 125.058 105.649 124.293 102.461 124.293ZM102.461 170.767C106.35 170.767 109.41 169.907 111.642 168.185C113.937 166.4 115.084 164.042 115.084 161.109C115.084 158.176 113.937 155.85 111.642 154.128C109.41 152.407 106.35 151.546 102.461 151.546C98.6363 151.546 95.6081 152.407 93.3768 154.128C91.1455 155.85 90.0298 158.176 90.0298 161.109C90.0298 164.105 91.1455 166.464 93.3768 168.185C95.6081 169.907 98.6363 170.767 102.461 170.767ZM188.445 145.809C191.76 147.466 194.278 149.634 196 152.311C197.785 154.989 198.677 158.081 198.677 161.587C198.677 165.731 197.498 169.365 195.139 172.489C192.78 175.549 189.465 177.939 185.194 179.661C180.922 181.318 175.982 182.147 170.372 182.147C164.761 182.147 159.821 181.318 155.549 179.661C151.342 177.939 148.059 175.549 145.7 172.489C143.405 169.365 142.257 165.731 142.257 161.587C142.257 158.081 143.118 154.989 144.839 152.311C146.624 149.634 149.142 147.466 152.394 145.809C149.907 144.279 147.995 142.366 146.656 140.071C145.317 137.712 144.648 135.035 144.648 132.038C144.648 128.15 145.732 124.771 147.899 121.902C150.067 119.033 153.095 116.834 156.984 115.304C160.873 113.71 165.335 112.913 170.372 112.913C175.472 112.913 179.966 113.71 183.855 115.304C187.808 116.834 190.868 119.033 193.035 121.902C195.203 124.771 196.287 128.15 196.287 132.038C196.287 135.035 195.617 137.712 194.278 140.071C192.94 142.366 190.995 144.279 188.445 145.809ZM170.372 124.293C167.248 124.293 164.73 125.058 162.817 126.588C160.968 128.054 160.044 130.094 160.044 132.708C160.044 135.258 160.968 137.266 162.817 138.732C164.666 140.199 167.184 140.932 170.372 140.932C173.559 140.932 176.109 140.199 178.022 138.732C179.934 137.266 180.891 135.258 180.891 132.708C180.891 130.094 179.934 128.054 178.022 126.588C176.109 125.058 173.559 124.293 170.372 124.293ZM170.372 170.767C174.26 170.767 177.32 169.907 179.552 168.185C181.847 166.4 182.994 164.042 182.994 161.109C182.994 158.176 181.847 155.85 179.552 154.128C177.32 152.407 174.26 151.546 170.372 151.546C166.546 151.546 163.518 152.407 161.287 154.128C159.056 155.85 157.94 158.176 157.94 161.109C157.94 164.105 159.056 166.464 161.287 168.185C163.518 169.907 166.546 170.767 170.372 170.767ZM256.355 145.809C259.67 147.466 262.189 149.634 263.91 152.311C265.695 154.989 266.587 158.081 266.587 161.587C266.587 165.731 265.408 169.365 263.049 172.489C260.69 175.549 257.375 177.939 253.104 179.661C248.833 181.318 243.892 182.147 238.282 182.147C232.672 182.147 227.731 181.318 223.46 179.661C219.252 177.939 215.969 175.549 213.61 172.489C211.315 169.365 210.167 165.731 210.167 161.587C210.167 158.081 211.028 154.989 212.749 152.311C214.534 149.634 217.053 147.466 220.304 145.809C217.818 144.279 215.905 142.366 214.566 140.071C213.227 137.712 212.558 135.035 212.558 132.038C212.558 128.15 213.642 124.771 215.809 121.902C217.977 119.033 221.005 116.834 224.894 115.304C228.783 113.71 233.245 112.913 238.282 112.913C243.382 112.913 247.876 113.71 251.765 115.304C255.718 116.834 258.778 119.033 260.945 121.902C263.113 124.771 264.197 128.15 264.197 132.038C264.197 135.035 263.527 137.712 262.189 140.071C260.85 142.366 258.905 144.279 256.355 145.809ZM238.282 124.293C235.158 124.293 232.64 125.058 230.727 126.588C228.878 128.054 227.954 130.094 227.954 132.708C227.954 135.258 228.878 137.266 230.727 138.732C232.576 140.199 235.094 140.932 238.282 140.932C241.469 140.932 244.019 140.199 245.932 138.732C247.845 137.266 248.801 135.258 248.801 132.708C248.801 130.094 247.845 128.054 245.932 126.588C244.019 125.058 241.469 124.293 238.282 124.293ZM238.282 170.767C242.171 170.767 245.231 169.907 247.462 168.185C249.757 166.4 250.905 164.042 250.905 161.109C250.905 158.176 249.757 155.85 247.462 154.128C245.231 152.407 242.171 151.546 238.282 151.546C234.457 151.546 231.429 152.407 229.197 154.128C226.966 155.85 225.85 158.176 225.85 161.109C225.85 164.105 226.966 166.464 229.197 168.185C231.429 169.907 234.457 170.767 238.282 170.767Z" fill="#FBFF20"/>
<path d="M106.295 200.474H96.188V193.094H125.662V200.474H115.602V226H106.295V200.474ZM145.865 217.256H140.788V226H131.48V193.094H146.523C149.5 193.094 152.086 193.595 154.279 194.598C156.473 195.569 158.165 196.98 159.356 198.829C160.547 200.646 161.143 202.793 161.143 205.269C161.143 207.651 160.579 209.735 159.45 211.521C158.353 213.276 156.771 214.655 154.702 215.658L161.801 226H151.835L145.865 217.256ZM151.741 205.269C151.741 203.733 151.255 202.542 150.284 201.696C149.312 200.85 147.871 200.427 145.959 200.427H140.788V210.064H145.959C147.871 210.064 149.312 209.656 150.284 208.841C151.255 207.995 151.741 206.804 151.741 205.269ZM185.222 226.658C181.743 226.658 178.609 225.921 175.82 224.448C173.062 222.975 170.884 220.938 169.286 218.337C167.719 215.736 166.936 212.806 166.936 209.547C166.936 206.287 167.719 203.357 169.286 200.756C170.884 198.155 173.062 196.118 175.82 194.645C178.609 193.172 181.743 192.436 185.222 192.436C188.701 192.436 191.819 193.172 194.577 194.645C197.366 196.118 199.544 198.155 201.111 200.756C202.709 203.357 203.508 206.287 203.508 209.547C203.508 212.806 202.709 215.736 201.111 218.337C199.544 220.938 197.366 222.975 194.577 224.448C191.819 225.921 188.701 226.658 185.222 226.658ZM185.222 218.948C186.883 218.948 188.387 218.557 189.735 217.773C191.082 216.99 192.148 215.893 192.931 214.482C193.715 213.041 194.106 211.396 194.106 209.547C194.106 207.698 193.715 206.068 192.931 204.658C192.148 203.216 191.082 202.104 189.735 201.32C188.387 200.537 186.883 200.145 185.222 200.145C183.561 200.145 182.057 200.537 180.709 201.32C179.362 202.104 178.296 203.216 177.513 204.658C176.729 206.068 176.337 207.698 176.337 209.547C176.337 211.396 176.729 213.041 177.513 214.482C178.296 215.893 179.362 216.99 180.709 217.773C182.057 218.557 183.561 218.948 185.222 218.948ZM242.041 193.094V226H234.379L219.853 208.465V226H210.734V193.094H218.396L232.921 210.628V193.094H242.041Z" fill="#FBFF20"/>
<circle cx="170.5" cy="168.708" r="117" stroke="black" stroke-width="5"/>
<circle cx="170" cy="20.9995" r="4" fill="white"/>
<circle cx="57.822" cy="93.6355" r="4" transform="rotate(55.3857 57.822 93.6355)" fill="white"/>
<circle cx="39.6355" cy="83.1355" r="4" transform="rotate(55.3857 39.6355 83.1355)" fill="white"/>
<circle cx="29.1355" cy="101.322" r="4" transform="rotate(55.3857 29.1355 101.322)" fill="white"/>
<circle cx="47.322" cy="111.822" r="4" transform="rotate(55.3857 47.322 111.822)" fill="white"/>
<circle cx="43.2654" cy="97.9328" r="4" transform="rotate(55.3857 43.2654 97.9328)" fill="white"/>
<circle cx="57.8024" cy="247.725" r="4" transform="rotate(85.1025 57.8024 247.725)" fill="white"/>
<circle cx="47.2125" cy="229.591" r="4" transform="rotate(85.1025 47.2125 229.591)" fill="white"/>
<circle cx="29.0788" cy="240.18" r="4" transform="rotate(85.1025 29.0788 240.18)" fill="white"/>
<circle cx="39.6686" cy="258.315" r="4" transform="rotate(85.1025 39.6686 258.315)" fill="white"/>
<circle cx="299.88" cy="98.7588" r="4" transform="rotate(25.3857 299.88 98.7588)" fill="white"/>
<circle cx="286.329" cy="92.3281" r="4" transform="rotate(25.3857 286.329 92.3281)" fill="white"/>
<circle cx="313.432" cy="105.189" r="4" transform="rotate(25.3857 313.432 105.189)" fill="white"/>
<circle cx="285.647" cy="249.481" r="4" transform="rotate(-41.6152 285.647 249.481)" fill="white"/>
<circle cx="313.311" cy="237.855" r="4" transform="rotate(-41.6152 313.311 237.855)" fill="white"/>
<circle cx="181.329" cy="316.786" r="4" transform="rotate(25.3857 181.329 316.786)" fill="white"/>
<circle cx="159.329" cy="316.786" r="4" transform="rotate(25.3857 159.329 316.786)" fill="white"/>
<circle cx="181.329" cy="305.786" r="4" transform="rotate(25.3857 181.329 305.786)" fill="white"/>
<circle cx="159.329" cy="305.786" r="4" transform="rotate(25.3857 159.329 305.786)" fill="white"/>
<circle cx="159.329" cy="327.786" r="4" transform="rotate(25.3857 159.329 327.786)" fill="white"/>
<circle cx="181.329" cy="327.786" r="4" transform="rotate(25.3857 181.329 327.786)" fill="white"/>
<path d="M19.282 195C16.3839 174.788 16.0981 163.676 19.282 144.378" stroke="white" stroke-width="34"/>
<path d="M322 144C324.898 164.212 325.184 175.324 322 194.622" stroke="white" stroke-width="34"/>
<path d="M267.84 288C251.786 300.615 242.305 306.419 224 313.311" stroke="white" stroke-width="34"/>
<path d="M224 25.9758C242.952 33.5717 252.719 38.8803 267.84 51.2871" stroke="white" stroke-width="34"/>
<path d="M116.982 313.311C98.029 305.715 88.2629 300.406 73.1415 288" stroke="white" stroke-width="34"/>
<path d="M73.141 51.2869C89.1957 38.6712 98.6761 32.8677 116.981 25.9756" stroke="white" stroke-width="34"/>
<path d="M99.7501 75.6839C109.649 68.3681 115.254 65.2063 125.47 60.8347" stroke="white" stroke-width="5.5"/>
<path d="M62.1045 124.324C67.2994 112.627 71 106.5 76.934 98.6381" stroke="white" stroke-width="5.5"/>
<path d="M264 98.6379C271.532 108.985 275.052 115.584 278.829 124.323" stroke="white" stroke-width="5.5"/>
<path d="M216 60.9996C227.696 66.1946 234.044 70.1491 241.685 75.8291" stroke="white" stroke-width="5.5"/>
<path d="M156.243 52.4999C168.97 51.1508 176.445 51.4013 185.902 52.4999" stroke="white" stroke-width="5.5"/>
<path d="M241.15 261.639C231.252 268.955 225.647 272.117 215.431 276.489" stroke="white" stroke-width="5.5"/>
<path d="M278.796 213C273.601 224.696 269.9 230.824 263.966 238.686" stroke="white" stroke-width="5.5"/>
<path d="M76.9005 238.686C69.3688 228.339 65.8481 221.74 62.071 213" stroke="white" stroke-width="5.5"/>
<path d="M124.9 276.324C113.203 271.129 106.855 267.174 99.2141 261.494" stroke="white" stroke-width="5.5"/>
<path d="M184.656 284.823C171.93 286.172 164.454 285.922 154.997 284.823" stroke="white" stroke-width="5.5"/>
<defs>
<linearGradient id="paint0_linear" x1="170.5" y1="-0.000488281" x2="170.5" y2="339" gradientUnits="userSpaceOnUse">
<stop offset="0.255208" stop-color="#2321B1"/>
<stop offset="1" stop-color="#7D45F5"/>
</linearGradient>
<linearGradient id="paint1_linear" x1="170.5" y1="-0.000488281" x2="170.5" y2="339" gradientUnits="userSpaceOnUse">
<stop offset="0.255208" stop-color="#0E0C7A"/>
<stop offset="1" stop-color="#7D45F5"/>
</linearGradient>
<linearGradient id="paint2_linear" x1="170.5" y1="-0.000488281" x2="170.5" y2="339" gradientUnits="userSpaceOnUse">
<stop offset="0.255208" stop-color="#0E0C7A"/>
<stop offset="0.984375" stop-color="#9039FF"/>
</linearGradient>
<linearGradient id="paint3_linear" x1="170.5" y1="-0.000488281" x2="170.5" y2="339" gradientUnits="userSpaceOnUse">
<stop offset="0.192708" stop-color="#1A17AE"/>
<stop offset="0.916567" stop-color="#8117D6"/>
<stop offset="1" stop-color="#8A1EDF"/>
</linearGradient>
<linearGradient id="paint4_linear" x1="170.5" y1="-0.000488281" x2="170.5" y2="339" gradientUnits="userSpaceOnUse">
<stop offset="0.0572917" stop-color="#1A17AE"/>
<stop offset="0.958333" stop-color="#7218AB"/>
<stop offset="0.9999" stop-color="#7218AB"/>
</linearGradient>
</defs>
</svg>
