
<svg xmlns="http://www.w3.org/2000/svg" version="1.1" xmlns:xlink="http://www.w3.org/1999/xlink" preserveAspectRatio="none" x="0px" y="0px" width="1045px" height="278px" viewBox="0 0 1045 278">
<defs>
<g id="Layer1_0_FILL">
<path fill="#FFFFFF" stroke="none" d="
M 948.1 95.9
Q 930.25 78 905 78
L 801.45 78
Q 777.2 78.55 759.9 95.9 754.05 101.75 750.05 108.4 742 122.05 742 139 742 156 750.1 169.7 754.05 176.3 759.9 182.15 777.2 199.45 801.45 200
L 905 200
Q 930.25 200 948.1 182.15 953.95 176.3 957.9 169.7 966 156 966 139 966 122.05 957.95 108.4 953.95 101.75 948.1 95.9 Z"/>
</g>
</defs>

<g transform="matrix( 1, 0, 0, 1, 0,0) ">
<use xlink:href="#Layer1_0_FILL"/>
</g>
</svg>
