<svg width="24" height="24" viewBox="0 0 24 24" fill="none" xmlns="http://www.w3.org/2000/svg">
<path d="M9 1.5C4.0365 1.5 0 4.8645 0 9C0 11.1855 1.116 13.2135 3.0855 14.6535L2.3295 16.1655C2.1885 16.446 2.238 16.7865 2.454 17.0145C2.598 17.1675 2.7975 17.25 3 17.25C3.099 17.25 3.1995 17.2305 3.2955 17.19L5.9475 16.0545C7.191 16.431 8.517 16.545 9.8475 16.4685C10.2615 16.4475 10.5795 16.0935 10.557 15.6795C10.5345 15.264 10.1415 14.925 9.768 14.9715C8.526 15.0345 7.293 14.925 6.147 14.5425C5.973 14.4855 5.784 14.4945 5.6145 14.565L4.587 15.006L4.722 14.7345C4.8945 14.3895 4.776 13.968 4.4475 13.764C2.574 12.594 1.5 10.8585 1.5 9C1.5 5.691 4.8645 3 9 3C13.1355 3 16.5 5.691 16.5 9C16.5 9.225 16.4895 9.4365 16.452 9.648C16.3785 10.056 16.6515 10.446 17.058 10.518C17.472 10.5945 17.8545 10.32 17.928 9.912C17.9805 9.6135 18 9.315 18 9C18 4.8645 13.9635 1.5 9 1.5Z" fill="#727095"/>
<path d="M21.4575 19.4865C23.061 18.3525 24 16.7175 24 15C24 11.691 20.6355 9 16.5 9C12.3645 9 9 11.691 9 15C9 18.6645 13.08 21.6225 17.856 20.8965L21.4545 22.44C21.549 22.479 21.651 22.5 21.75 22.5C21.9525 22.5 22.152 22.4175 22.296 22.263C22.5135 22.035 22.563 21.696 22.422 21.414L21.4575 19.4865ZM20.112 18.567C19.767 18.765 19.6365 19.197 19.8135 19.5525L20.163 20.2545L18.246 19.431C18.153 19.392 18.051 19.371 17.9505 19.371C17.907 19.371 17.865 19.374 17.823 19.3815C17.3625 19.4625 16.929 19.5 16.5 19.5C13.191 19.5 10.5 17.481 10.5 15C10.5 12.519 13.191 10.5 16.5 10.5C19.809 10.5 22.5 12.519 22.5 15C22.5 16.398 21.63 17.6985 20.112 18.567Z" fill="#727095"/>
<path d="M6.02996 6H6.01496C5.60096 6 5.27246 6.336 5.27246 6.75C5.27246 7.164 5.61596 7.5 6.02996 7.5C6.44396 7.5 6.77996 7.164 6.77996 6.75C6.77996 6.336 6.44396 6 6.02996 6Z" fill="#727095"/>
<path d="M12.03 6H12.015C11.601 6 11.2725 6.336 11.2725 6.75C11.2725 7.164 11.616 7.5 12.03 7.5C12.444 7.5 12.78 7.164 12.78 6.75C12.78 6.336 12.444 6 12.03 6Z" fill="#727095"/>
<path d="M14.28 12.75H14.265C13.8495 12.75 13.5225 13.086 13.5225 13.5C13.5225 13.914 13.866 14.25 14.28 14.25C14.694 14.25 15.03 13.914 15.03 13.5C15.03 13.086 14.694 12.75 14.28 12.75Z" fill="#727095"/>
<path d="M18.78 12.75H18.765C18.351 12.75 18.0225 13.086 18.0225 13.5C18.0225 13.914 18.3675 14.25 18.78 14.25C19.194 14.25 19.53 13.914 19.53 13.5C19.53 13.086 19.194 12.75 18.78 12.75Z" fill="#727095"/>
</svg>
