<svg width="153" height="230" viewBox="0 0 153 230" fill="none" xmlns="http://www.w3.org/2000/svg">
<path d="M145 305C224.954 305 290 236.589 290 152.5C290 68.4108 224.954 0 145 0C65.0463 0 0 68.4108 0 152.5C0 236.589 65.0463 305 145 305ZM268.78 152.5C268.78 224.284 213.253 282.683 145 282.683C131.782 282.683 119.043 280.484 107.089 276.43L182.882 208.409C185.979 206.082 188.876 203.486 191.539 200.641L191.59 200.595L191.585 200.589C203.161 188.188 210.318 171.209 210.318 152.5C210.318 134.679 203.83 118.425 193.212 106.204H260.686C265.909 120.597 268.78 136.201 268.78 152.5ZM101.968 162.607C101.278 159.351 100.902 155.973 100.902 152.5C100.902 127.346 120.044 106.818 143.812 106.153V106.205H147.555C170.686 107.601 189.1 127.829 189.1 152.501C189.1 164.807 184.511 175.998 177.05 184.309L169.709 190.897C162.656 195.933 154.15 198.881 145.001 198.881C127.057 198.881 111.592 187.544 104.714 171.328L104.766 171.31L101.968 162.607ZM145 22.3171C189.326 22.3171 228.278 46.9551 250.147 83.8869H148.132C147.094 83.8348 146.05 83.8036 145 83.8036C120.523 83.8036 99.1602 98.0449 87.9747 119.056L66.4227 51.9854C87.812 33.4578 115.192 22.3171 145 22.3171ZM49.6692 69.5549L81.5466 168.76C87.8643 196.027 109.688 216.958 136.6 220.61L85.3944 266.564C47.171 244.381 21.2195 201.569 21.2195 152.5C21.2195 121.008 31.9085 92.0936 49.6692 69.5549Z" fill="#514d82"/>
</svg>
