<svg width="15" height="15" viewBox="0 0 15 15" fill="none" xmlns="http://www.w3.org/2000/svg">
<path d="M7.5 15C11.6355 15 15 11.6355 15 7.5C15 3.36446 11.6355 0 7.5 0C3.36446 0 0 3.36446 0 7.5C0 11.6355 3.36446 15 7.5 15ZM13.9024 7.5C13.9024 11.0303 11.0303 13.9024 7.5 13.9024C6.81629 13.9024 6.15739 13.7943 5.5391 13.5949L9.45944 10.2496C9.61961 10.1352 9.76946 10.0075 9.90717 9.86758L9.90981 9.86532L9.90958 9.86502C10.5083 9.25515 10.8785 8.42012 10.8785 7.5C10.8785 6.62356 10.543 5.82417 9.99373 5.22315H13.4838C13.7539 5.931 13.9024 6.69841 13.9024 7.5ZM5.27422 7.99705C5.23851 7.83695 5.21905 7.67078 5.21905 7.5C5.21905 6.2629 6.2092 5.25337 7.43854 5.22066V5.22322H7.63215C8.82856 5.29185 9.78102 6.28668 9.78102 7.50007C9.78102 8.10527 9.54366 8.65566 9.15776 9.06439L8.77807 9.38839C8.41324 9.63607 7.97327 9.78102 7.50007 9.78102C6.5719 9.78102 5.772 9.22346 5.41624 8.42597L5.41895 8.4251L5.27422 7.99705ZM7.5 1.09756C9.79273 1.09756 11.8075 2.30927 12.9386 4.12559H7.662C7.60829 4.12302 7.55429 4.12149 7.5 4.12149C6.23393 4.12149 5.12898 4.82188 4.55041 5.8552L3.43566 2.55666C4.542 1.64546 5.95822 1.09756 7.5 1.09756ZM2.5691 3.42073L4.21793 8.29968C4.54471 9.64068 5.67351 10.67 7.06551 10.8497L4.41695 13.1097C2.43988 12.0187 1.09756 9.91324 1.09756 7.5C1.09756 5.95119 1.65044 4.52919 2.5691 3.42073Z" fill="white"/>
</svg>
