<svg width="23" height="25" viewBox="0 0 23 25" fill="none" xmlns="http://www.w3.org/2000/svg">
<g clip-path="url(#clip0)">
<path d="M6.31468 21.9339C5.25899 20.6762 4.20334 19.3682 3.53152 17.8087C2.85974 16.1486 2.66779 14.2369 3.0037 12.4259C3.33961 10.6148 4.10734 8.90434 5.21103 7.44546C5.11508 8.70315 5.54694 10.0111 6.36268 10.967C5.88281 8.55223 6.65059 5.93624 8.1861 4.02459C9.72161 2.11294 11.833 0.855204 14.0403 0C12.9366 1.20737 12.7927 3.11902 13.2245 4.72888C13.6564 6.33869 14.5681 7.7473 15.3839 9.20619C16.1996 10.6651 16.9674 12.1743 17.0154 13.8344C17.4473 12.9792 17.9271 12.124 18.215 11.1682C18.5029 10.2123 18.6469 9.20619 18.407 8.25034C19.2707 9.35711 19.7506 10.4638 19.9905 11.8724C20.2304 13.2811 20.1824 14.7399 20.0385 16.1486C19.8465 17.7081 19.4627 19.3179 18.6469 20.6259C17.6873 22.1854 16.1517 23.2921 14.4722 23.8958C11.4971 24.4492 8.56996 23.9965 6.31468 21.9339Z" fill="#F3705A"/>
<path d="M9.92817 23.7952C13.8629 25.4051 17.7497 20.5253 15.5904 16.7523C15.5904 16.7019 15.5424 16.7019 15.5424 16.6517C15.7343 18.7142 15.2545 20.2234 14.3427 21.0787C14.8226 19.8713 14.4867 18.4627 13.9109 17.2553C13.3351 16.0983 12.5193 15.0418 11.8955 13.9351C11.2717 12.778 10.7919 11.47 11.0798 10.162C9.92812 11.0676 9.11239 12.4259 8.77648 13.8848C8.44057 15.3436 8.63252 16.9535 9.25635 18.3118C8.53657 17.7584 8.00875 16.8529 7.96075 15.8971C7.19297 16.8529 6.71315 18.1105 6.7611 19.3682C6.76115 21.3302 8.24866 23.0909 9.92817 23.7952Z" fill="#FFD15C"/>
</g>
<defs>
<clipPath id="clip0">
<rect width="23" height="24.1129" fill="white" transform="matrix(-1 0 0 1 23 0)"/>
</clipPath>
</defs>
</svg>
