<svg width="16" height="16" viewBox="0 0 16 16" fill="none" xmlns="http://www.w3.org/2000/svg">
<path fill-rule="evenodd" clip-rule="evenodd" d="M7.63164 1.54103C7.8483 1.36914 8.1517 1.36914 8.36836 1.54103L13.7684 5.82503C13.9145 5.94097 14 6.11925 14 6.30811V13.0401C14 13.527 13.8104 13.994 13.4728 14.3384C13.1352 14.6827 12.6774 14.8761 12.2 14.8761H3.8C3.32261 14.8761 2.86477 14.6827 2.52721 14.3384C2.18964 13.994 2 13.527 2 13.0401V6.30811C2 6.11925 2.08548 5.94097 2.23164 5.82503L7.63164 1.54103ZM3.2 6.60743V13.0401C3.2 13.2024 3.26321 13.3581 3.37574 13.4729C3.48826 13.5876 3.64087 13.6521 3.8 13.6521H12.2C12.3591 13.6521 12.5117 13.5876 12.6243 13.4729C12.7368 13.3581 12.8 13.2024 12.8 13.0401V6.60743L8 2.79943L3.2 6.60743Z" fill="white"/>
<path fill-rule="evenodd" clip-rule="evenodd" d="M5.6 8.14411C5.6 7.80611 5.86863 7.53211 6.2 7.53211H9.8C10.1314 7.53211 10.4 7.80611 10.4 8.14411V14.2641C10.4 14.6021 10.1314 14.8761 9.8 14.8761C9.46863 14.8761 9.2 14.6021 9.2 14.2641V8.75611H6.8V14.2641C6.8 14.6021 6.53137 14.8761 6.2 14.8761C5.86863 14.8761 5.6 14.6021 5.6 14.2641V8.14411Z" fill="white"/>
</svg>
