<svg width="16" height="16" viewBox="0 0 16 16" fill="none" xmlns="http://www.w3.org/2000/svg">
<path fill-rule="evenodd" clip-rule="evenodd" d="M7.63164 1.5409C7.8483 1.36902 8.1517 1.36902 8.36836 1.5409L13.7684 5.8249C13.9145 5.94085 14 6.11913 14 6.30799V13.04C14 13.5269 13.8104 13.9939 13.4728 14.3382C13.1352 14.6826 12.6774 14.876 12.2 14.876H3.8C3.32261 14.876 2.86477 14.6826 2.52721 14.3382C2.18964 13.9939 2 13.5269 2 13.04V6.30799C2 6.11913 2.08548 5.94085 2.23164 5.8249L7.63164 1.5409ZM3.2 6.60731V13.04C3.2 13.2023 3.26321 13.358 3.37574 13.4727C3.48826 13.5875 3.64087 13.652 3.8 13.652H12.2C12.3591 13.652 12.5117 13.5875 12.6243 13.4727C12.7368 13.358 12.8 13.2023 12.8 13.04V6.60731L8 2.79931L3.2 6.60731Z" fill="#827EF1"/>
<path fill-rule="evenodd" clip-rule="evenodd" d="M7.63164 1.5409C7.8483 1.36902 8.1517 1.36902 8.36836 1.5409L13.7684 5.8249C13.9145 5.94085 14 6.11913 14 6.30799V13.04C14 13.5269 13.8104 13.9939 13.4728 14.3382C13.1352 14.6826 12.6774 14.876 12.2 14.876H3.8C3.32261 14.876 2.86477 14.6826 2.52721 14.3382C2.18964 13.9939 2 13.5269 2 13.04V6.30799C2 6.11913 2.08548 5.94085 2.23164 5.8249L7.63164 1.5409ZM3.2 6.60731V13.04C3.2 13.2023 3.26321 13.358 3.37574 13.4727C3.48826 13.5875 3.64087 13.652 3.8 13.652H12.2C12.3591 13.652 12.5117 13.5875 12.6243 13.4727C12.7368 13.358 12.8 13.2023 12.8 13.04V6.60731L8 2.79931L3.2 6.60731Z" fill="url(#paint0_linear)"/>
<path fill-rule="evenodd" clip-rule="evenodd" d="M5.6 8.14399C5.6 7.80599 5.86863 7.53199 6.2 7.53199H9.8C10.1314 7.53199 10.4 7.80599 10.4 8.14399V14.264C10.4 14.602 10.1314 14.876 9.8 14.876C9.46863 14.876 9.2 14.602 9.2 14.264V8.75599H6.8V14.264C6.8 14.602 6.53137 14.876 6.2 14.876C5.86863 14.876 5.6 14.602 5.6 14.264V8.14399Z" fill="#827EF1"/>
<path fill-rule="evenodd" clip-rule="evenodd" d="M5.6 8.14399C5.6 7.80599 5.86863 7.53199 6.2 7.53199H9.8C10.1314 7.53199 10.4 7.80599 10.4 8.14399V14.264C10.4 14.602 10.1314 14.876 9.8 14.876C9.46863 14.876 9.2 14.602 9.2 14.264V8.75599H6.8V14.264C6.8 14.602 6.53137 14.876 6.2 14.876C5.86863 14.876 5.6 14.602 5.6 14.264V8.14399Z" fill="url(#paint1_linear)"/>
<defs>
<linearGradient id="paint0_linear" x1="14" y1="1.41199" x2="0.624716" y2="13.3329" gradientUnits="userSpaceOnUse">
<stop stop-color="#5FD4F4"/>
<stop offset="1" stop-color="white" stop-opacity="0"/>
</linearGradient>
<linearGradient id="paint1_linear" x1="14" y1="1.41199" x2="0.624716" y2="13.3329" gradientUnits="userSpaceOnUse">
<stop stop-color="#5FD4F4"/>
<stop offset="1" stop-color="white" stop-opacity="0"/>
</linearGradient>
</defs>
</svg>
