<svg width="14" height="14" viewBox="0 0 14 14" fill="none" xmlns="http://www.w3.org/2000/svg">
<path fill-rule="evenodd" clip-rule="evenodd" d="M1.75 8.16665C1.75 7.84448 2.01117 7.58331 2.33333 7.58331H5.83333C6.1555 7.58331 6.41667 7.84448 6.41667 8.16665V11.6666C6.41667 11.9888 6.1555 12.25 5.83333 12.25C5.51117 12.25 5.25 11.9888 5.25 11.6666V8.74998H2.33333C2.01117 8.74998 1.75 8.48881 1.75 8.16665Z" fill="white"/>
<path fill-rule="evenodd" clip-rule="evenodd" d="M8.16634 1.75C8.48851 1.75 8.74967 2.01117 8.74967 2.33333V5.25H11.6663C11.9885 5.25 12.2497 5.51117 12.2497 5.83333C12.2497 6.1555 11.9885 6.41667 11.6663 6.41667H8.16634C7.84418 6.41667 7.58301 6.1555 7.58301 5.83333V2.33333C7.58301 2.01117 7.84418 1.75 8.16634 1.75Z" fill="white"/>
<path fill-rule="evenodd" clip-rule="evenodd" d="M12.6622 1.33754C12.89 1.56535 12.89 1.93469 12.6622 2.1625L8.57882 6.24583C8.35101 6.47364 7.98167 6.47364 7.75386 6.24583C7.52606 6.01803 7.52606 5.64868 7.75386 5.42087L11.8372 1.33754C12.065 1.10974 12.4343 1.10974 12.6622 1.33754Z" fill="white"/>
<path fill-rule="evenodd" clip-rule="evenodd" d="M6.24614 7.75417C6.47394 7.98197 6.47394 8.35132 6.24614 8.57913L2.1628 12.6625C1.935 12.8903 1.56565 12.8903 1.33785 12.6625C1.11004 12.4347 1.11004 12.0653 1.33785 11.8375L5.42118 7.75417C5.64899 7.52636 6.01833 7.52636 6.24614 7.75417Z" fill="white"/>
</svg>
