<svg width="259" height="229" viewBox="0 0 259 229" fill="none" xmlns="http://www.w3.org/2000/svg">
<path opacity="0.4" d="M80.4 228.4L55.5 214L179.4 0.099988L204.3 14.5L80.4 228.4ZM54.3 134.8C37.5 134.8 24.4 129.3 15 118.3C5.6 107.3 0.9 91.2 0.9 70C0.9 49 5.6 33 15 22C24.4 11 37.5 5.49999 54.3 5.49999C71.1 5.49999 84.2 11 93.6 22C103.2 33 108 49 108 70C108 91.2 103.2 107.3 93.6 118.3C84.2 129.3 71.1 134.8 54.3 134.8ZM54.3 110.5C61.9 110.5 67.4 107.4 70.8 101.2C74.4 94.8 76.2 84.4 76.2 70C76.2 56 74.4 45.8 70.8 39.4C67.2 33 61.7 29.8 54.3 29.8C46.9 29.8 41.4 33 37.8 39.4C34.4 45.6 32.7 55.8 32.7 70C32.7 84.4 34.4 94.8 37.8 101.2C41.4 107.4 46.9 110.5 54.3 110.5ZM205.2 222.1C188.4 222.1 175.3 216.6 165.9 205.6C156.5 194.6 151.8 178.4 151.8 157C151.8 136 156.5 120.1 165.9 109.3C175.5 98.3 188.6 92.8 205.2 92.8C222 92.8 235.1 98.3 244.5 109.3C253.9 120.3 258.6 136.3 258.6 157.3C258.6 178.5 253.9 194.6 244.5 205.6C235.1 216.6 222 222.1 205.2 222.1ZM205.2 197.8C212.6 197.8 218.1 194.7 221.7 188.5C225.3 182.1 227.1 171.7 227.1 157.3C227.1 143.3 225.3 133.1 221.7 126.7C218.1 120.3 212.6 117.1 205.2 117.1C197.8 117.1 192.3 120.3 188.7 126.7C185.1 133.1 183.3 143.3 183.3 157.3C183.3 171.7 185.1 182.1 188.7 188.5C192.3 194.7 197.8 197.8 205.2 197.8Z" fill="url(#paint0_linear)"/>
<defs>
<linearGradient id="paint0_linear" x1="130" y1="-83" x2="130" y2="248" gradientUnits="userSpaceOnUse">
<stop stop-color="#38355E"/>
<stop offset="1" stop-color="#3D3A68"/>
</linearGradient>
</defs>
</svg>
