<svg width="12" height="12" viewBox="0 0 12 12" fill="none" xmlns="http://www.w3.org/2000/svg">
<path fill-rule="evenodd" clip-rule="evenodd" d="M6 1.5C3.51472 1.5 1.5 3.51472 1.5 6C1.5 8.48528 3.51472 10.5 6 10.5C8.48528 10.5 10.5 8.48528 10.5 6C10.5 3.51472 8.48528 1.5 6 1.5ZM0.5 6C0.5 2.96243 2.96243 0.5 6 0.5C9.03757 0.5 11.5 2.96243 11.5 6C11.5 9.03757 9.03757 11.5 6 11.5C2.96243 11.5 0.5 9.03757 0.5 6Z" fill="white"/>
<path fill-rule="evenodd" clip-rule="evenodd" d="M6.12906 4.01216C5.8963 3.97223 5.65692 4.01597 5.45332 4.13563C5.24972 4.25529 5.09504 4.44314 5.01667 4.66592C4.92503 4.92642 4.63957 5.0633 4.37908 4.97167C4.11858 4.88003 3.9817 4.59457 4.07333 4.33408C4.23007 3.88852 4.53943 3.51282 4.94664 3.2735C5.35384 3.03418 5.8326 2.9467 6.29812 3.02655C6.76364 3.1064 7.18588 3.34843 7.49005 3.70976C7.79416 4.07103 7.96064 4.52824 7.96 5.00046C7.95984 5.53554 7.67843 5.94452 7.38755 6.22321C7.09657 6.502 6.75154 6.69545 6.50794 6.81214C6.48848 6.82147 6.47434 6.83479 6.46651 6.8463C6.46286 6.85166 6.46124 6.85563 6.46057 6.85771C6.45999 6.85952 6.46 6.86025 6.46 6.86037V7.00001C6.46 7.27615 6.23614 7.50001 5.96 7.50001C5.68386 7.50001 5.46 7.27615 5.46 7.00001V6.86038C5.46 6.42547 5.73428 6.07394 6.07591 5.91029C6.27413 5.81533 6.51314 5.67608 6.69574 5.50114C6.87835 5.32617 6.96 5.16052 6.96 5L6.96 4.99926C6.96035 4.7631 6.87711 4.53443 6.72503 4.35376C6.57294 4.1731 6.36182 4.05208 6.12906 4.01216Z" fill="white"/>
<path d="M6.5 8.5C6.5 8.77614 6.27614 9 6 9C5.72386 9 5.5 8.77614 5.5 8.5C5.5 8.22386 5.72386 8 6 8C6.27614 8 6.5 8.22386 6.5 8.5Z" fill="white"/>
</svg>
