<svg width="18" height="8" viewBox="0 0 18 8" fill="none" xmlns="http://www.w3.org/2000/svg">
<path d="M17.8664 3.45263H16.2404C15.978 1.8529 14.5864 0.628174 12.9136 0.628174C11.4908 0.628174 10.2717 1.51439 9.77746 2.76354C9.54965 2.61787 9.27984 2.53222 8.98989 2.53222C8.69993 2.53222 8.43013 2.61787 8.20231 2.76354C7.70806 1.51439 6.48913 0.628174 5.06637 0.628174C3.36251 0.628174 1.95058 1.89871 1.72628 3.54195H0.132812V4.45809H1.72628C1.95058 6.10134 3.36235 7.37202 5.06637 7.37202C6.92567 7.37202 8.43822 5.85917 8.43822 4.00002C8.43822 3.69586 8.68573 3.44835 8.98989 3.44835C9.29404 3.44835 9.54156 3.69586 9.54156 4.00002C9.54156 5.85917 11.0543 7.37202 12.9136 7.37202C14.6481 7.37202 16.0806 6.05507 16.2649 4.36862H17.8664V3.45263ZM5.06622 6.45588C3.71201 6.45588 2.61036 5.35423 2.61036 4.00002C2.61036 2.64597 3.71201 1.54431 5.06622 1.54431C6.42027 1.54431 7.52193 2.64597 7.52193 4.00002C7.52193 5.35423 6.42027 6.45588 5.06622 6.45588ZM12.9134 6.45588C11.5592 6.45588 10.4575 5.35423 10.4575 4.00002C10.4575 2.64597 11.5592 1.54431 12.9134 1.54431C14.2676 1.54431 15.3693 2.64582 15.3693 4.00002C15.3693 5.35423 14.2676 6.45588 12.9134 6.45588Z" fill="white"/>
</svg>
