<svg width="16" height="16" viewBox="0 0 16 16" fill="none" xmlns="http://www.w3.org/2000/svg">
<g clip-path="url(#clip0)">
<path d="M13.6597 2.34093C10.5387 -0.780348 5.46096 -0.780348 2.34058 2.34018C-0.780396 5.46071 -0.780094 10.5386 2.34089 13.6598C5.46096 16.7801 10.5387 16.7801 13.6594 13.6592C16.7801 10.5386 16.7799 5.46101 13.6597 2.34093ZM12.7864 12.7864C10.1473 15.4256 5.85289 15.4259 3.21361 12.7867C0.573869 10.1472 0.574171 5.85234 3.21361 3.2132C5.85274 0.574219 10.147 0.573917 12.7867 3.2135C15.4258 5.85264 15.4255 10.1475 12.7864 12.7864ZM5.01457 5.83378C5.01457 5.31724 5.4335 4.8983 5.95005 4.8983C6.46644 4.8983 6.88537 5.31709 6.88537 5.83378C6.88537 6.35063 6.46644 6.76941 5.95005 6.76941C5.4335 6.76941 5.01457 6.35063 5.01457 5.83378ZM9.25628 5.83378C9.25628 5.31724 9.67552 4.8983 10.1921 4.8983C10.7085 4.8983 11.1274 5.31709 11.1274 5.83378C11.1274 6.35063 10.7086 6.76941 10.1921 6.76941C9.67552 6.76941 9.25628 6.35063 9.25628 5.83378ZM11.4679 9.66516C10.8881 11.0058 9.53039 11.8721 8.00913 11.8721C6.45512 11.8721 5.08939 11.0015 4.5297 9.65399C4.43376 9.42333 4.54313 9.15842 4.7741 9.06248C4.83082 9.03909 4.88966 9.02793 4.94759 9.02793C5.125 9.02793 5.29336 9.13278 5.36562 9.30702C5.78455 10.3157 6.82216 10.9671 8.00913 10.9671C9.16924 10.9671 10.2008 10.3152 10.6371 9.30596C10.7364 9.0765 11.0028 8.97075 11.2321 9.07017C11.4614 9.16959 11.5671 9.43585 11.4679 9.66516Z" fill="white"/>
</g>
<defs>
<clipPath id="clip0">
<rect width="16" height="16" fill="white"/>
</clipPath>
</defs>
</svg>
