<svg width="24" height="24" viewBox="0 0 24 24" fill="none" xmlns="http://www.w3.org/2000/svg">
<g clip-path="url(#clip0)">
<path d="M23.8019 3.16053C23.5668 2.87359 23.177 2.76718 22.8304 2.89487L0.815237 10.8662C0.375418 11.0264 0.0667019 11.4147 0.0093899 11.8798C-0.0473728 12.3427 0.15624 12.7918 0.538198 13.0503L3.68505 15.2027C3.98992 15.4113 4.38195 15.4337 4.70843 15.2611L11.5346 11.6543L6.21447 15.6346C5.96471 15.8215 5.81548 16.1197 5.81548 16.4319V20.1188C5.81548 20.4991 6.02367 20.8475 6.35876 21.0284C6.69439 21.2093 7.09978 21.1913 7.41857 20.9807L9.80938 19.3918L12.1605 20.998C12.3664 21.1394 12.6118 21.2139 12.8594 21.2139C12.943 21.2139 13.0271 21.2053 13.1099 21.188C13.44 21.1191 13.732 20.9147 13.9113 20.6274L23.8717 4.17104C24.0656 3.8542 24.0378 3.44875 23.8019 3.16053ZM12.8068 19.7334L10.3721 18.0699C10.2027 17.9539 10.0075 17.896 9.81249 17.896C9.62169 17.896 9.43072 17.9516 9.26354 18.0627L7.22246 19.4193V16.64L16.6167 9.61166C17.0362 9.29776 17.1418 8.72645 16.8622 8.28283C16.5824 7.83922 16.0223 7.68933 15.5593 7.93407L4.27263 13.8976L1.61101 12.077L21.8839 4.73666L12.8068 19.7334Z" fill="#727095"/>
</g>
<defs>
<clipPath id="clip0">
<rect width="24" height="24" fill="white"/>
</clipPath>
</defs>
</svg>
