<svg width="24" height="24" viewBox="0 0 24 24" fill="none" xmlns="http://www.w3.org/2000/svg">
<g clip-path="url(#clip0)">
<path d="M9.13201 21.9239C5.12639 21.9239 1.9605 21.2241 0.445851 20.0042L0.416371 19.9804L0.389638 19.9537C0.0298359 19.5937 -0.088084 19.1215 0.0664569 18.6582L0.080556 18.6198C0.268056 18.1508 0.727467 17.8352 1.22533 17.8322C2.24999 17.8145 3.14647 17.6924 3.96001 17.4552C2.66234 16.8517 1.76091 15.8067 1.2246 14.2943C1.04424 13.8226 1.19988 13.2997 1.61553 12.9878C1.71807 12.9107 1.83397 12.8525 1.95665 12.8135C1.23558 11.9811 0.702931 11.0339 0.404653 10.0321L0.395314 10.001L0.388906 9.96914C0.287648 9.46249 0.51415 8.94156 0.92925 8.71725C1.10338 8.61728 1.29253 8.56546 1.48241 8.56106C1.2777 8.12015 1.12883 7.66751 1.04058 7.21213C0.795583 5.95016 0.997731 4.68509 1.64116 3.45205L1.79003 3.15432C1.90923 2.9161 2.13701 2.74875 2.39959 2.70608C2.66216 2.6636 2.93132 2.75039 3.11937 2.93844L3.39055 3.20999C5.53289 5.45596 7.45183 6.52163 10.7695 7.25076C10.9177 5.97726 11.4682 4.79348 12.3565 3.86184C13.4136 2.75332 14.8251 2.13131 16.3312 2.11007H16.341C17.4399 2.11007 18.8029 2.73739 19.6272 3.17978C20.3344 2.94833 21.1864 2.58999 22.0704 2.21115C22.4841 2.01706 22.994 2.10586 23.3192 2.43106C23.638 2.74984 23.7264 3.19937 23.5572 3.63626C23.493 3.81515 23.4201 3.99075 23.339 4.1625C23.46 4.21798 23.5708 4.29324 23.6644 4.38681C23.9472 4.66971 24.0652 5.11245 23.9646 5.51492L23.9538 5.55319C23.6151 6.64486 22.9643 7.53402 22.1037 8.09213C21.96 15.7461 16.1962 21.9239 9.13201 21.9239ZM1.79552 19.2204C3.22283 20.0279 5.94286 20.5164 9.13201 20.5164C12.1981 20.5164 15.0915 19.2 17.2791 16.8098C19.4846 14.3999 20.6991 11.1998 20.6991 7.7988V7.76053C20.6991 7.45254 20.8687 7.17148 21.1415 7.02682C21.6951 6.73367 22.1433 6.23434 22.4348 5.59585C22.1341 5.64328 21.8285 5.52261 21.6412 5.27102C21.4235 4.9786 21.4211 4.58365 21.6352 4.28866C21.7507 4.12936 21.8555 3.96365 21.9488 3.79226C21.1855 4.11288 20.4606 4.40036 19.8312 4.59134C19.6025 4.66055 19.3476 4.63345 19.1387 4.51681C18.0183 3.89261 16.9748 3.51944 16.3456 3.51761C14.024 3.55313 12.1364 5.54147 12.1364 7.95224C12.1364 8.20144 12.0258 8.43509 11.8334 8.59347C11.6407 8.75168 11.3902 8.81503 11.1456 8.76669C7.32018 8.01303 5.05333 6.8829 2.69603 4.51407C2.3582 5.32358 2.26592 6.13894 2.42211 6.94406C2.58049 7.75961 3.00182 8.57681 3.64067 9.30722C3.88347 9.58444 3.9157 9.98105 3.72087 10.294C3.52678 10.6058 3.15783 10.7516 2.80315 10.6565C2.52593 10.5822 2.27105 10.4846 2.02935 10.3592C2.52172 11.4287 3.36858 12.4178 4.43315 13.1473C4.74169 13.3588 4.87059 13.753 4.74681 14.106C4.62285 14.4596 4.2766 14.6872 3.90233 14.6594C3.49456 14.6292 3.13329 14.5517 2.80077 14.4212C3.39769 15.6368 4.35149 16.3057 5.82091 16.5613C6.17083 16.6223 6.44329 16.8986 6.49895 17.2489C6.5548 17.5991 6.3814 17.9463 6.06774 18.1128C4.8153 18.7767 3.4464 19.133 1.79552 19.2204Z" fill="#727095"/>
</g>
<defs>
<clipPath id="clip0">
<rect width="24" height="24" fill="white"/>
</clipPath>
</defs>
</svg>
