<svg width="24" height="22" viewBox="0 0 24 22" fill="none" xmlns="http://www.w3.org/2000/svg">
<path d="M22.6563 9.65872H22.0853V6.22804C22.0853 4.82525 20.9434 3.68826 19.5455 3.68826H19.0189L19.0238 2.41344C19.0238 1.4684 18.2559 0.700562 17.3109 0.700562H2.08203C0.945037 0.700562 0.0147662 1.61607 0 2.75306C0 2.76291 0 2.77275 0 2.7826V19.5865C0 20.5316 0.767842 21.2994 1.71288 21.2994H19.5505C20.9532 21.2994 22.0902 20.1575 22.0902 18.7596V15.324H22.6612C23.3995 15.324 24 14.7235 24 13.9852V10.9975C23.9951 10.2592 23.3946 9.65872 22.6563 9.65872ZM2.08203 1.88186H17.3109C17.6013 1.88186 17.8425 2.11812 17.8425 2.40852L17.8376 3.68826H2.08203C1.58491 3.68826 1.1813 3.28465 1.1813 2.78752C1.1813 2.29039 1.58491 1.88186 2.08203 1.88186ZM20.904 18.7547C20.904 19.5029 20.2937 20.1132 19.5455 20.1132H1.70796C1.41756 20.1132 1.17637 19.8769 1.17637 19.5816V4.66283C1.45201 4.79572 1.75718 4.86955 2.08203 4.86955H19.5455C20.2937 4.86955 20.904 5.47989 20.904 6.22804V9.65872H16.8728C16.1345 9.65872 15.534 10.2592 15.534 10.9975V13.9852C15.534 14.7235 16.1345 15.324 16.8728 15.324H20.904V18.7547ZM22.8138 13.9852C22.8138 14.0738 22.7449 14.1427 22.6563 14.1427H16.8778C16.7892 14.1427 16.7203 14.0738 16.7203 13.9852V10.9975C16.7203 10.9139 16.7892 10.84 16.8778 10.84H22.6563C22.74 10.84 22.8138 10.9089 22.8138 10.9975V13.9852Z" fill="#827EF1"/>
<path d="M22.6563 9.65872H22.0853V6.22804C22.0853 4.82525 20.9434 3.68826 19.5455 3.68826H19.0189L19.0238 2.41344C19.0238 1.4684 18.2559 0.700562 17.3109 0.700562H2.08203C0.945037 0.700562 0.0147662 1.61607 0 2.75306C0 2.76291 0 2.77275 0 2.7826V19.5865C0 20.5316 0.767842 21.2994 1.71288 21.2994H19.5505C20.9532 21.2994 22.0902 20.1575 22.0902 18.7596V15.324H22.6612C23.3995 15.324 24 14.7235 24 13.9852V10.9975C23.9951 10.2592 23.3946 9.65872 22.6563 9.65872ZM2.08203 1.88186H17.3109C17.6013 1.88186 17.8425 2.11812 17.8425 2.40852L17.8376 3.68826H2.08203C1.58491 3.68826 1.1813 3.28465 1.1813 2.78752C1.1813 2.29039 1.58491 1.88186 2.08203 1.88186ZM20.904 18.7547C20.904 19.5029 20.2937 20.1132 19.5455 20.1132H1.70796C1.41756 20.1132 1.17637 19.8769 1.17637 19.5816V4.66283C1.45201 4.79572 1.75718 4.86955 2.08203 4.86955H19.5455C20.2937 4.86955 20.904 5.47989 20.904 6.22804V9.65872H16.8728C16.1345 9.65872 15.534 10.2592 15.534 10.9975V13.9852C15.534 14.7235 16.1345 15.324 16.8728 15.324H20.904V18.7547ZM22.8138 13.9852C22.8138 14.0738 22.7449 14.1427 22.6563 14.1427H16.8778C16.7892 14.1427 16.7203 14.0738 16.7203 13.9852V10.9975C16.7203 10.9139 16.7892 10.84 16.8778 10.84H22.6563C22.74 10.84 22.8138 10.9089 22.8138 10.9975V13.9852Z" fill="url(#paint0_linear)"/>
<defs>
<linearGradient id="paint0_linear" x1="24" y1="0.700562" x2="3.63936" y2="24.423" gradientUnits="userSpaceOnUse">
<stop stop-color="#5FD4F4"/>
<stop offset="1" stop-color="white" stop-opacity="0"/>
</linearGradient>
</defs>
</svg>
